<mxfile host="app.diagrams.net" modified="2023-04-24T15:33:08.937Z" agent="Mozilla/5.0 (Windows NT 10.0; Win64; x64) AppleWebKit/537.36 (KHTML, like Gecko) Chrome/99.0.4844.51 Safari/537.36" etag="g9RAwG-58MpwWYiypMdQ" version="21.1.9" type="github">
  <diagram name="第 1 页" id="U4mesdBTffYrPHzzo0_h">
    <mxGraphModel dx="1474" dy="680" grid="0" gridSize="10" guides="1" tooltips="1" connect="1" arrows="1" fold="1" page="1" pageScale="1" pageWidth="1169" pageHeight="827" math="0" shadow="0">
      <root>
        <mxCell id="0" />
        <mxCell id="1" parent="0" />
        <mxCell id="yFWF_R06-EUS3LjBShWH-6" style="edgeStyle=orthogonalEdgeStyle;rounded=1;orthogonalLoop=1;jettySize=auto;html=1;exitX=0.5;exitY=1;exitDx=0;exitDy=0;fontFamily=Times New Roman;labelBackgroundColor=none;verticalAlign=middle;labelBorderColor=none;strokeColor=#788AA3;fontColor=default;" parent="1" target="yFWF_R06-EUS3LjBShWH-2" edge="1">
          <mxGeometry relative="1" as="geometry">
            <mxPoint x="258.9999999999998" y="201" as="sourcePoint" />
            <Array as="points">
              <mxPoint x="260" y="201" />
            </Array>
          </mxGeometry>
        </mxCell>
        <mxCell id="yFWF_R06-EUS3LjBShWH-2" value="2115 Included.&amp;nbsp;A total of 1007 PASI&lt;span style=&quot;font-size:10.5pt;mso-bidi-font-size:12.0pt;line-height:150%;font-family:&lt;br/&gt;宋体;mso-ascii-font-family:&amp;quot;Times New Roman&amp;quot;;mso-fareast-theme-font:minor-fareast;&lt;br/&gt;mso-hansi-font-family:&amp;quot;Times New Roman&amp;quot;;mso-bidi-font-family:&amp;quot;Times New Roman&amp;quot;;&lt;br/&gt;mso-bidi-theme-font:minor-bidi;mso-font-kerning:1.0pt;mso-ansi-language:EN-US;&lt;br/&gt;mso-fareast-language:ZH-CN;mso-bidi-language:AR-SA&quot; lang=&quot;ZH-CN&quot;&gt;≤&lt;/span&gt;&lt;span style=&quot;font-size:10.5pt;mso-bidi-font-size:12.0pt;line-height:150%;font-family:&lt;br/&gt;&amp;quot;Times New Roman&amp;quot;,serif;mso-fareast-font-family:宋体;mso-fareast-theme-font:minor-fareast;&lt;br/&gt;mso-bidi-theme-font:minor-bidi;mso-font-kerning:1.0pt;mso-ansi-language:EN-US;&lt;br/&gt;mso-fareast-language:ZH-CN;mso-bidi-language:AR-SA&quot;&gt;10 and 1108 PASI &amp;gt;10 psoriasis patients were enrolled&lt;/span&gt;" style="rounded=1;whiteSpace=wrap;html=1;fontFamily=Times New Roman;labelBackgroundColor=none;verticalAlign=middle;labelBorderColor=none;fillColor=#B2C9AB;strokeColor=#788AA3;fontColor=#46495D;container=0;align=left;" parent="1" vertex="1">
          <mxGeometry x="148" y="330" width="233" height="86" as="geometry" />
        </mxCell>
        <mxCell id="yFWF_R06-EUS3LjBShWH-7" value="" style="endArrow=classic;html=1;rounded=1;entryX=0;entryY=0.5;entryDx=0;entryDy=0;fontFamily=Times New Roman;labelBackgroundColor=none;verticalAlign=middle;labelBorderColor=none;strokeColor=#788AA3;fontColor=default;" parent="1" target="yFWF_R06-EUS3LjBShWH-55" edge="1">
          <mxGeometry width="50" height="50" relative="1" as="geometry">
            <mxPoint x="260" y="269" as="sourcePoint" />
            <mxPoint x="399.9999999999998" y="268.0000000000001" as="targetPoint" />
            <Array as="points">
              <mxPoint x="327" y="269" />
            </Array>
          </mxGeometry>
        </mxCell>
        <mxCell id="yFWF_R06-EUS3LjBShWH-23" value="&lt;p style=&quot;border-color: var(--border-color); line-height: 15.6px;&quot;&gt;the Department of Dermatology of the University of Hong Kong-Shenzhen(116 patients, from June 1, 2022 to January 31, 2023)&lt;/p&gt;" style="rounded=1;whiteSpace=wrap;html=1;align=left;fontFamily=Times New Roman;labelBackgroundColor=none;verticalAlign=middle;labelBorderColor=none;fillColor=#B2C9AB;strokeColor=#788AA3;fontColor=#46495D;container=0;" parent="1" vertex="1">
          <mxGeometry x="730" y="422" width="190" height="68" as="geometry" />
        </mxCell>
        <mxCell id="yFWF_R06-EUS3LjBShWH-24" value="&lt;div&gt;the People&#39;s Hospital of the Xinjiang&lt;/div&gt;&lt;div&gt;Uygur Autonomous Region(193 patients,&amp;nbsp;&lt;/div&gt;&lt;div&gt;from June 1, 2022 to January 31, 2023&lt;span style=&quot;background-color: transparent;&quot;&gt;)&lt;/span&gt;&lt;/div&gt;" style="rounded=1;whiteSpace=wrap;html=1;align=left;fontFamily=Times New Roman;labelBackgroundColor=none;verticalAlign=middle;labelBorderColor=none;fillColor=#B2C9AB;strokeColor=#788AA3;fontColor=#46495D;container=0;" parent="1" vertex="1">
          <mxGeometry x="710" y="580" width="224" height="60" as="geometry" />
        </mxCell>
        <mxCell id="yFWF_R06-EUS3LjBShWH-63" style="edgeStyle=orthogonalEdgeStyle;rounded=1;orthogonalLoop=1;jettySize=auto;html=1;exitX=0;exitY=0.5;exitDx=0;exitDy=0;entryX=0;entryY=0.75;entryDx=0;entryDy=0;labelBackgroundColor=none;strokeColor=#788AA3;fontColor=default;" parent="1" source="yFWF_R06-EUS3LjBShWH-28" target="yFWF_R06-EUS3LjBShWH-41" edge="1">
          <mxGeometry relative="1" as="geometry" />
        </mxCell>
        <mxCell id="yFWF_R06-EUS3LjBShWH-68" style="edgeStyle=orthogonalEdgeStyle;rounded=1;orthogonalLoop=1;jettySize=auto;html=1;exitX=1;exitY=0.5;exitDx=0;exitDy=0;entryX=0.25;entryY=0;entryDx=0;entryDy=0;labelBackgroundColor=none;strokeColor=#788AA3;fontColor=default;" parent="1" source="yFWF_R06-EUS3LjBShWH-28" target="yFWF_R06-EUS3LjBShWH-29" edge="1">
          <mxGeometry relative="1" as="geometry" />
        </mxCell>
        <mxCell id="yFWF_R06-EUS3LjBShWH-28" value="22 characteristics with coefficient P-values less than 0.05&amp;nbsp;based on univariate COX regression analysis" style="rounded=1;whiteSpace=wrap;html=1;align=left;fontFamily=Times New Roman;labelBackgroundColor=none;verticalAlign=middle;labelBorderColor=none;fillColor=#B2C9AB;strokeColor=#788AA3;fontColor=#46495D;container=0;" parent="1" vertex="1">
          <mxGeometry x="175" y="447" width="180" height="60" as="geometry" />
        </mxCell>
        <mxCell id="yFWF_R06-EUS3LjBShWH-30" style="edgeStyle=orthogonalEdgeStyle;rounded=1;orthogonalLoop=1;jettySize=auto;html=1;exitX=0.5;exitY=1;exitDx=0;exitDy=0;entryX=0.5;entryY=0;entryDx=0;entryDy=0;fontFamily=Times New Roman;labelBackgroundColor=none;verticalAlign=middle;labelBorderColor=none;strokeColor=#788AA3;fontColor=default;" parent="1" source="yFWF_R06-EUS3LjBShWH-2" target="yFWF_R06-EUS3LjBShWH-28" edge="1">
          <mxGeometry relative="1" as="geometry">
            <mxPoint x="170" y="500" as="sourcePoint" />
          </mxGeometry>
        </mxCell>
        <mxCell id="yFWF_R06-EUS3LjBShWH-29" value="The final prediction model incorporated 13 common indicators based on multivariate COX regression analysis,&amp;nbsp;" style="rounded=1;whiteSpace=wrap;html=1;align=left;fontFamily=Times New Roman;labelBackgroundColor=none;verticalAlign=middle;labelBorderColor=none;fillColor=#B2C9AB;strokeColor=#788AA3;fontColor=#46495D;container=0;" parent="1" vertex="1">
          <mxGeometry x="326" y="540" width="200" height="60" as="geometry" />
        </mxCell>
        <mxCell id="yFWF_R06-EUS3LjBShWH-35" style="edgeStyle=orthogonalEdgeStyle;rounded=1;orthogonalLoop=1;jettySize=auto;html=1;exitX=0.5;exitY=1;exitDx=0;exitDy=0;exitPerimeter=0;fontFamily=Times New Roman;labelBackgroundColor=none;verticalAlign=middle;labelBorderColor=none;strokeColor=#788AA3;fontColor=default;" parent="1" source="yFWF_R06-EUS3LjBShWH-34" edge="1">
          <mxGeometry relative="1" as="geometry">
            <mxPoint x="259.0000000000002" y="121" as="targetPoint" />
          </mxGeometry>
        </mxCell>
        <mxCell id="yFWF_R06-EUS3LjBShWH-34" value="&lt;font style=&quot;font-size: 14px;&quot;&gt;Study Population&lt;/font&gt;" style="strokeWidth=2;html=1;shape=mxgraph.flowchart.terminator;whiteSpace=wrap;fontFamily=Times New Roman;labelBackgroundColor=none;verticalAlign=middle;labelBorderColor=none;fillColor=#B2C9AB;strokeColor=#788AA3;fontColor=#46495D;rounded=1;container=0;" parent="1" vertex="1">
          <mxGeometry x="210" y="30" width="100" height="60" as="geometry" />
        </mxCell>
        <mxCell id="yFWF_R06-EUS3LjBShWH-41" value="&lt;div style=&quot;text-align: left;&quot;&gt;&lt;span style=&quot;background-color: transparent;&quot;&gt;the characteristics for which P values higher than 0.05 were excluded.&lt;/span&gt;&lt;span style=&quot;background-color: transparent;&quot;&gt;&amp;nbsp;&lt;/span&gt;&lt;/div&gt;&lt;span&gt;&lt;/span&gt;" style="rounded=1;whiteSpace=wrap;html=1;fontFamily=Times New Roman;labelBackgroundColor=none;verticalAlign=middle;labelBorderColor=none;fillColor=#B2C9AB;strokeColor=#788AA3;fontColor=#46495D;container=0;" parent="1" vertex="1">
          <mxGeometry x="140" y="537" width="120" height="60" as="geometry" />
        </mxCell>
        <mxCell id="yFWF_R06-EUS3LjBShWH-46" value="&lt;div style=&quot;border-color: var(--border-color);&quot;&gt;&lt;span style=&quot;text-indent: 0cm; background-color: transparent;&quot;&gt;Performance of the PASI&lt;br/&gt;Risk Nomogram&lt;/span&gt;&lt;span style=&quot;background-color: transparent;&quot;&gt;&amp;nbsp;using COX analysis&lt;/span&gt;&lt;/div&gt;" style="rounded=1;whiteSpace=wrap;html=1;align=left;fontFamily=Times New Roman;labelBackgroundColor=none;verticalAlign=middle;labelBorderColor=none;fillColor=#B2C9AB;strokeColor=#788AA3;fontColor=#46495D;container=0;" parent="1" vertex="1">
          <mxGeometry x="529" y="492" width="160" height="56" as="geometry" />
        </mxCell>
        <mxCell id="yFWF_R06-EUS3LjBShWH-50" style="edgeStyle=orthogonalEdgeStyle;rounded=1;orthogonalLoop=1;jettySize=auto;html=1;exitX=0;exitY=0.5;exitDx=0;exitDy=0;entryX=1;entryY=0.5;entryDx=0;entryDy=0;fontFamily=Times New Roman;labelBackgroundColor=none;verticalAlign=middle;labelBorderColor=none;strokeColor=#788AA3;fontColor=default;" parent="1" source="yFWF_R06-EUS3LjBShWH-23" target="yFWF_R06-EUS3LjBShWH-46" edge="1">
          <mxGeometry relative="1" as="geometry" />
        </mxCell>
        <mxCell id="10i8PntJXFFodvHVopwG-9" style="edgeStyle=orthogonalEdgeStyle;rounded=0;orthogonalLoop=1;jettySize=auto;html=1;exitX=0.1;exitY=0.5;exitDx=0;exitDy=0;exitPerimeter=0;labelBackgroundColor=none;strokeColor=#788AA3;fontColor=default;" edge="1" parent="1" source="yFWF_R06-EUS3LjBShWH-54" target="10i8PntJXFFodvHVopwG-8">
          <mxGeometry relative="1" as="geometry">
            <Array as="points">
              <mxPoint x="966" y="653" />
              <mxPoint x="807" y="653" />
            </Array>
          </mxGeometry>
        </mxCell>
        <mxCell id="yFWF_R06-EUS3LjBShWH-54" value="" style="shape=curlyBracket;whiteSpace=wrap;html=1;rounded=1;flipH=1;labelPosition=right;verticalLabelPosition=middle;align=left;verticalAlign=middle;fontFamily=Times New Roman;labelBackgroundColor=none;labelBorderColor=none;fillColor=#B2C9AB;strokeColor=#788AA3;fontColor=#46495D;container=0;" parent="1" vertex="1">
          <mxGeometry x="930" y="460" width="40" height="120" as="geometry" />
        </mxCell>
        <mxCell id="yFWF_R06-EUS3LjBShWH-55" value="&lt;div style=&quot;border-color: var(--border-color); text-align: left;&quot;&gt;&lt;ul&gt;&lt;li&gt;&lt;span style=&quot;&quot;&gt;PASI and Course of disease: Insufficient follow-up,&lt;/span&gt;&lt;br&gt;&lt;/li&gt;&lt;li&gt;&lt;font&gt;BSA, DLQI, Sex, Age: remove missing data.&amp;nbsp;&lt;/font&gt;&lt;/li&gt;&lt;li&gt;&lt;font&gt;Weight and Height: the extreme data that seemed to be out of line with the norm and obviously exceeded the actual normal range (too large or too small) .&lt;/font&gt;&lt;/li&gt;&lt;/ul&gt;&lt;/div&gt;" style="rounded=1;whiteSpace=wrap;html=1;fontFamily=Times New Roman;labelBackgroundColor=none;verticalAlign=middle;labelBorderColor=none;fillColor=#B2C9AB;strokeColor=#788AA3;fontColor=#46495D;container=0;" parent="1" vertex="1">
          <mxGeometry x="401" y="208" width="320" height="120" as="geometry" />
        </mxCell>
        <mxCell id="yFWF_R06-EUS3LjBShWH-56" value="1187 Excluded" style="text;whiteSpace=wrap;html=1;fontFamily=Times New Roman;labelBackgroundColor=none;verticalAlign=middle;labelBorderColor=none;fontColor=#46495D;rounded=1;container=0;" parent="1" vertex="1">
          <mxGeometry x="291" y="232" width="100" height="30" as="geometry" />
        </mxCell>
        <mxCell id="yFWF_R06-EUS3LjBShWH-57" value="3,302 participating psoriasis patients from 14 hospitals nationwide from all over China. (&lt;span style=&quot;border-color: var(--border-color); text-align: left;&quot;&gt;October 31, 2019 to&amp;nbsp;&lt;/span&gt;&lt;span style=&quot;border-color: var(--border-color); text-align: left;&quot;&gt;June 1, 2022)&lt;/span&gt;" style="rounded=1;whiteSpace=wrap;html=1;fontFamily=Times New Roman;labelBackgroundColor=none;verticalAlign=middle;labelBorderColor=none;fillColor=#B2C9AB;strokeColor=#788AA3;fontColor=#46495D;container=0;" parent="1" vertex="1">
          <mxGeometry x="140" y="120" width="250" height="80" as="geometry" />
        </mxCell>
        <mxCell id="yFWF_R06-EUS3LjBShWH-60" value="&lt;p style=&quot;line-height: 100%;&quot;&gt;&lt;/p&gt;&lt;ul&gt;&lt;li style=&quot;text-align: left;&quot;&gt;A COX regression analysis was required to change some&amp;nbsp;&lt;span style=&quot;border-color: var(--border-color);&quot;&gt;data with values of 0 (PASI and BSA) to 0.01.&lt;/span&gt;&lt;/li&gt;&lt;/ul&gt;&lt;p&gt;&lt;/p&gt;" style="shape=ellipse;html=1;dashed=0;whiteSpace=wrap;perimeter=ellipsePerimeter;fontFamily=Times New Roman;labelBackgroundColor=none;verticalAlign=middle;labelBorderColor=none;fillColor=#B2C9AB;strokeColor=#788AA3;fontColor=#46495D;rounded=1;container=0;align=center;" parent="1" vertex="1">
          <mxGeometry x="442" y="342" width="184" height="110" as="geometry" />
        </mxCell>
        <mxCell id="yFWF_R06-EUS3LjBShWH-61" value="" style="html=1;shadow=0;dashed=0;align=center;verticalAlign=middle;shape=mxgraph.arrows2.jumpInArrow;dy=5.26;dx=28.12;arrowHead=46.55;rotation=-90;fontFamily=Times New Roman;labelBackgroundColor=none;labelBorderColor=default;fillColor=#B2C9AB;strokeColor=#788AA3;fontColor=#46495D;rounded=1;container=0;direction=north;" parent="1" vertex="1">
          <mxGeometry x="375" y="386" width="70" height="110" as="geometry" />
        </mxCell>
        <mxCell id="yFWF_R06-EUS3LjBShWH-53" style="edgeStyle=orthogonalEdgeStyle;rounded=1;orthogonalLoop=1;jettySize=auto;html=1;exitX=0;exitY=0.5;exitDx=0;exitDy=0;entryX=0.75;entryY=1;entryDx=0;entryDy=0;fontFamily=Times New Roman;labelBackgroundColor=none;verticalAlign=middle;labelBorderColor=none;strokeColor=#788AA3;fontColor=default;" parent="1" source="yFWF_R06-EUS3LjBShWH-24" target="yFWF_R06-EUS3LjBShWH-46" edge="1">
          <mxGeometry relative="1" as="geometry" />
        </mxCell>
        <mxCell id="yFWF_R06-EUS3LjBShWH-52" style="edgeStyle=orthogonalEdgeStyle;rounded=1;orthogonalLoop=1;jettySize=auto;html=1;exitX=1;exitY=0.5;exitDx=0;exitDy=0;entryX=0.5;entryY=1;entryDx=0;entryDy=0;fontFamily=Times New Roman;labelBackgroundColor=none;verticalAlign=middle;labelBorderColor=none;strokeColor=#788AA3;fontColor=default;" parent="1" source="yFWF_R06-EUS3LjBShWH-29" target="yFWF_R06-EUS3LjBShWH-46" edge="1">
          <mxGeometry relative="1" as="geometry" />
        </mxCell>
        <mxCell id="10i8PntJXFFodvHVopwG-1" value="" style="shape=crossbar;whiteSpace=wrap;html=1;rounded=1;labelBackgroundColor=none;fillColor=#B2C9AB;strokeColor=#788AA3;fontColor=#46495D;" vertex="1" parent="1">
          <mxGeometry x="145" y="678" width="497" height="20" as="geometry" />
        </mxCell>
        <mxCell id="10i8PntJXFFodvHVopwG-2" value="" style="shape=crossbar;whiteSpace=wrap;html=1;rounded=1;labelBackgroundColor=none;fillColor=#B2C9AB;strokeColor=#788AA3;fontColor=#46495D;" vertex="1" parent="1">
          <mxGeometry x="642" y="678" width="298" height="20" as="geometry" />
        </mxCell>
        <mxCell id="10i8PntJXFFodvHVopwG-5" value="&lt;span style=&quot;border-color: var(--border-color); color: rgb(70, 73, 93); font-family: &amp;quot;Times New Roman&amp;quot;; font-size: 12px; font-style: normal; font-variant-ligatures: normal; font-variant-caps: normal; font-weight: 400; letter-spacing: normal; orphans: 2; text-indent: 0px; text-transform: none; widows: 2; word-spacing: 0px; -webkit-text-stroke-width: 0px; background-color: rgb(251, 251, 251); text-decoration-thickness: initial; text-decoration-style: initial; text-decoration-color: initial; text-align: left;&quot;&gt;October 31, 2019&amp;nbsp;&lt;/span&gt;" style="text;whiteSpace=wrap;html=1;labelBackgroundColor=none;fontColor=#46495D;" vertex="1" parent="1">
          <mxGeometry x="139.99999999999997" y="703" width="92.67" height="37" as="geometry" />
        </mxCell>
        <mxCell id="10i8PntJXFFodvHVopwG-6" value="&lt;span style=&quot;color: rgb(70, 73, 93); font-family: &amp;quot;Times New Roman&amp;quot;; font-size: 12px; font-style: normal; font-variant-ligatures: normal; font-variant-caps: normal; font-weight: 400; letter-spacing: normal; orphans: 2; text-align: left; text-indent: 0px; text-transform: none; widows: 2; word-spacing: 0px; -webkit-text-stroke-width: 0px; background-color: rgb(251, 251, 251); text-decoration-thickness: initial; text-decoration-style: initial; text-decoration-color: initial; float: none; display: inline !important;&quot;&gt;June 1, 2022&lt;/span&gt;" style="text;whiteSpace=wrap;html=1;labelBackgroundColor=none;fontColor=#46495D;" vertex="1" parent="1">
          <mxGeometry x="604.0033740234375" y="700.9966870117188" width="89" height="37" as="geometry" />
        </mxCell>
        <mxCell id="10i8PntJXFFodvHVopwG-7" value="&lt;span style=&quot;color: rgb(70, 73, 93); font-family: &amp;quot;Times New Roman&amp;quot;; font-size: 12px; font-style: normal; font-variant-ligatures: normal; font-variant-caps: normal; font-weight: 400; letter-spacing: normal; orphans: 2; text-align: left; text-indent: 0px; text-transform: none; widows: 2; word-spacing: 0px; -webkit-text-stroke-width: 0px; background-color: rgb(251, 251, 251); text-decoration-thickness: initial; text-decoration-style: initial; text-decoration-color: initial; float: none; display: inline !important;&quot;&gt;January 31, 2023&lt;/span&gt;" style="text;whiteSpace=wrap;html=1;labelBackgroundColor=none;fontColor=#46495D;" vertex="1" parent="1">
          <mxGeometry x="895.0033740234375" y="697.9966870117188" width="110" height="37" as="geometry" />
        </mxCell>
        <mxCell id="10i8PntJXFFodvHVopwG-8" value="&lt;span style=&quot;color: rgb(70, 73, 93); font-family: &amp;quot;Times New Roman&amp;quot;; font-size: 12px; font-style: normal; font-variant-ligatures: normal; font-variant-caps: normal; font-weight: 400; letter-spacing: normal; orphans: 2; text-align: left; text-indent: 0px; text-transform: none; widows: 2; word-spacing: 0px; -webkit-text-stroke-width: 0px; background-color: rgb(251, 251, 251); text-decoration-thickness: initial; text-decoration-style: initial; text-decoration-color: initial; float: none; display: inline !important;&quot;&gt;Validation Cohort&amp;nbsp;&lt;/span&gt;" style="text;whiteSpace=wrap;html=1;labelBackgroundColor=none;fontColor=#46495D;" vertex="1" parent="1">
          <mxGeometry x="727.0033740234375" y="660.9966870117188" width="160" height="37" as="geometry" />
        </mxCell>
        <mxCell id="10i8PntJXFFodvHVopwG-10" value="&lt;span style=&quot;font-size: 10.5pt;&quot;&gt;&lt;font face=&quot;Times New Roman&quot;&gt;Model Derivation&lt;/font&gt;&lt;/span&gt;" style="text;whiteSpace=wrap;html=1;labelBackgroundColor=none;fontColor=#46495D;" vertex="1" parent="1">
          <mxGeometry x="318.3333740234375" y="656" width="128" height="39" as="geometry" />
        </mxCell>
        <mxCell id="10i8PntJXFFodvHVopwG-11" value="" style="shape=image;verticalLabelPosition=bottom;labelBackgroundColor=none;verticalAlign=top;aspect=fixed;imageAspect=0;image=data:image/png,iVBORw0KGgoAAAANSUhEUgAAAK4AAACtCAYAAAApmERAAAAAAXNSR0IArs4c6QAAAARnQU1BAACxjwv8YQUAAAAJcEhZcwAAFiUAABYlAUlSJPAAAK/WSURBVHhe7f0HvB1HkfcPl3LOOedoBctKtmRZzpYl54QNtgGbvOzCLgsbHpYFdmFhiQsG29gmB+MITuAgK2cr55zj1dVVzvK8v2/19Dlzzj1Xwcs+7/P/fLakvmemp7u6urq6uqq7p6daIrD/hf+F/49B9fT3f+F/4f9T4Br39OlTdvzYMTt54qQlybtWrVp1q1GzplWzxN49c0ZxiR0/fszj6tStq/hq9u6773p8CEIkZLryZwGzekX16go1PM3JE8ftXf3WqlXL01SvWYMMdkb4QVBNacmfcK+8pOG+Vq3aVrdefatVpw7R54TTp07aMdXl1MlTwn3aagiv012vntWtWy9N9d7h8MGDdkJ1oU7QXadOXcddq3Zt8e3cFJ4+JV6Ll/DjzGnRV6MmjHJeVK+u/D7+wVBwiQcqg0AbEVNT/KhRQ7x6V+2iGPDxADxnzrzrz2I+8NWGfw0aeFtkAd4cP37CTohXtDH53hXO6sJD2ti+oQ1Vnq5pK9LyzOkQX3Xj7UreXKtRF8cnCkVbdckTvKkmesBx8sQJb+/aKc+4fvd0wAuQt36DhuKp2pxKl4BqQpIsWbzA5r/zju3ZvZdinVAEDKCCEHbsyBERW0tCJCYI2WkELAoviFJmxYIgCKGFCOKPHT3qv3UkgKQHv27VeKdCvpQ5OeKF54ynr2u9evWwocOGW5eu3f3Z2WD58qU2aeLbdqBivzc25deTYHXp0tWGjxhhHTt3sZow/ALh8KHDtmzJIufT3vLyUE/R36hJY+vXt68NuWSotWnXPiQ+C8yZPcsmT5qsjpUKbs1a3rDwpEaNwEO/EQOqcal7wikEVEBj16wlIVVDk4x4hAXBdUFRfZ008RHBatGihV188cXWr/9F1rBxY8dx8uRJmzNzui1dutT27atwnteoUSMIsPJUT6/BgYKpkSqfU+KnC646CB21pmiHXIQWOameNj5paft3XQlKDohX+6JETp86rY5/TLfVvG1VWIhHcJE1lVm3bh0bNGiQXTxUPG1bBU/37S1LvvX1f0v69OyWiCmJBCupS6hbNwS/rpPUic9ivOL82blCiqNOnQzuGB/xF4WYLv7ecNWY5LU/PC9+nBt+/stfJO06dvC8MTRsUD+5aszo5Nnf/iqRxkxTXhhsWL8m+dynP560b91SfKrleOFX8xbNkwfvuyeZM21KmvLs8JWvfjWRkORoy9a7gKdcZ+4L0mf4VhJPjFP+Hj26JV/54j8l61evTClIkoqKiuSzn/pY0q5l83y7ZkO2XZyO0FaxrFz6NJ7rSjiKQ1Fa5CGLO/uscaOGyYfff3cya+pkWQOnU6oLobqCNNu7LvH0RNQ4v6dO6je9xoSgZ5/iWvH+zK8LwykN05Xi0rQM3SF/Nr4QT0yTS+fln/Lr0+qN5wOnpQ1OpHnIfwIc0mzHT4ELcyVo9AsFNM2xo8dS3Pm6gB8zSwxOU54dGNrjcBlxwLfAu5RuD5Sh+5SnlflSIj7Lf09zyvmGRkQ7R2B0PCHNd1zpT2TzF+SN1/yGNo9l5dKTLk2bxVFKDrJyE3CobuBWfo9P8cBPZO3kKWlxad+gwyuDCy61cltGKp0h46wB1Z79/e+EEjgYpuI15gM0Qdv52I+Ap0vzOB5wOB6G0PPDUQqi3Q8+wGlNcccyzwdIH39jPRlWA63pr19H+jNx5wqV0kJf4GMWkuSM84L0F9Tm5xly9cmG88QRTItzt5dqdDamY19hxxYGbKnK8dinleNDXFXx2TjdF+iFFHLklaYRmyjYYzgHwbajmbKpucdmJq4UlogjF7jP4UVD46QGmivzCvZSl3z5BThElzsuKAgBcSUB/RF5E/lRRdpQXpZ3ITiSIihVX69DoSxnIOLmN4ZQ92xZ+TTFcVWHUjgizQVs5bok4XmQgqthNb1nhpQgcCTCR2/EkakpA/29hlo1q+uXUPp5NsQel6ODXw/0wBAf4ejhw7Z21QqbOWWSTX37LZuiMGfqJNuwdo2zIosHJNy75sngOS6Hcc3K5TZr2hTHQZg++W2bNXWKzZw22aZNnmjTJk206QrvzJ1tu8v2aPiStnJ8ISBcFfsPyHFbkqOFMEv5Z0+fYjMUN2PK245n7oxptnXzRi8bcY+k8IsGriWnCz7USgO8r1wPfpSWdkv5FgOjVUwPeBbPQ1n5+KDRQvkezW945NrS21yOYgy1dB/oyYdAo+goig/PSslM6bhcm6vRIonOG/EDRzMXWQTVKir2JU/95HF74omf2LoNm5yBIGJqpVWrltarZw+rV7euV5YeFmpIQaGnBHBRCc+y0QKmQDxfUbwTlMMn71g2Ypm89W1bt9mhQ4ecDmiAwVddfql95m//1sbfemdILFizYrm99vIfbfasmW7bgR8mbN21x1au22jHjxxy/MyI1K5T24ZdMsQ+/YmP24233G4NGwXvetP6Dfb8739jCxfMt6NHjzhN4GAKDoHEboV2+HFEQr5l+07bun27HT123OmjSrXkWXdo28Y6d+pgTRs3dI0K4+vWk8csiLYv8QjFilVrbOXa9SqHigfeUGbLli2sc+dO1qhBQy8Pe2/P3r22XWUeOXLYcQDgadSwkfXr09saNW7kaSHk8JEjtn7TZqvYV+42NADvO3XqZB98/732gQc+aN179fH4QwcO2Bf/6fP29O+ftXJ1OsoHBxqxfccOqktHqy/PPgJtTzsljDgRdE89yUgzRuCS2OyVA3QCaWJoOy57dk9ZmW3ZvFXXgaen5Gs1qF/P7r7tZvvYJ//KRlw22uOLoSbzpm68C18MAIbxgP4X2Re/+M/WuWt3781x6IJgkevXOVBGYpyREXTpDcyzbKWzoPQIZ8W+vfanl1+yn//q167BatFR9JiA8LnwZ2DNmlX2xkRpxFlzfGgmIUWT9gxl+f8gGGQNv4U4duzYZpMmTbaZc+bKUWFaSf+EhBDS5tP7neoPbuzdiIrpvG07dtj2nbu8fOL5ZQTjOqRLEws/gufzsGkUwlKnTk0bPHiwffwjD9vAwZf4VNPuHdvttVdftt/87mlbr9ElCH51dz7btmtn//hP/2iDL76EgqyGCly+fJl985vftFmz50hwT4XGVhng96mzDP+54j7PG4I6uZ5cOmyofezjH7eeffqGtGmb05a5agiyfMry1fEoRF8gB6TXT0yLv7Br+zb74wvP2lO/+LUdlmKoTQcRkOY0zhmmWgZ3Fqq7DSbPM9gbhVC/fn1pgS7WrXt369Kli3Xt1s1Dl25dc9e5oDSkK4jr2s3zM4daEJ8NXbtaZ8fd3bUOw0cpKKQ/cS8VLYj2O3bshB07fsKOKuBJw+zi6lI/Gj+L6KSE9cixFIfyHpMGOHr8uO6Phd8UJ4HnJ+WJFzOSRmK0QHt4uvT38NHjwg2OLJ7jXmYxIACNGjYQrzpLSXSxDh07Om9atmzp5kMx1K5Vyzp2kGaEd8rTQVq1vfKwOIR0VGrs1AyMIFGTkPJbGZpIi3cTDbR3ts1py9y1Qpe03fjNxiMDPXr0KIjzoHTZtIwEnUR78+bNQyfLggiDxqJGL4DqDGVVSTaN7dM36XD3PwmseJ3W8Jjr4Vlw2grpU1vL/tKwroAGw2biGiYgCMVAHFog62G73SUhYKisod4e8bmNpt94H699yCwC8FKmmxiZ9Dk7Nb3P4VDaLKvjNZrRTZNUMzIlVGW7pCELpHMToeCB+BD+p38CRJSwKRPtQPG+uFSi3L80QC+yVaoo+Br+lQbxkYYu3dhAcTRD4+FDB618zx4r273L9u7ZZWUFYafid3r83j2706B4pQ1hp5XLyWHerhBUUEpLMcRK5AHzQqaLrk5J0GE0Wo/5WrRqcU08nbTlgYMHrHzvHttfUe408Us+z5DJRHrwIEjg5Jd57tN0ZH5zcQowX6MWjUDakB7zq+qGBzflEphBCAKn9BlmYwMGB6q4NqEN9pXvtX17d4f6+PVeO+W0hNHG6VJAEThPi/CghCtjJlmIzVIPHtp8b6a9C9t3d6bN429o63hdIRqZ7852RAxOb9siQrj3uFIEplCzZq06blMFAU5jI8TMmfj9Ffts+dIlMqg3uzamYFfrnihTXcX7XFyaNzQO7fOuL/VdMnyk9ejV28sGKJ9l4Kxt5EWnfyKeCE2aNLF2bdtaGzmQaGpw09g+bGtYfle/gDeEnh04cNAWL16iy2puAkHP2nXr3J52mfHUoQY1RUOjBvWlRWv6vTNYcWho8rlNrVhws6TML8LIM+9g1WTKyEZjcj9oFLBQd9mzqm8dOYs1Hbf+KV/jRg2tZYvmoquB1wEI3n3gB1HZceiwbN6ZM6bZTtnBcYTasXO3nZIyaNGsqZ1xcyTQ1rZVKx+O69bOO1uxrqUgyHi+DTCFEMyVsqE3bVivGJgV6hxnoqgXPIn5aGPoxwyFbzxvJIe4b78B1qtvXznLgRbSO//8LgOKAL+3XRVwjkV7MhZm3iqBfeG552zegoWuNX0vguK9wQTeGNxTsVysBBcG6wZN0ECC835pP9bRW7Vtl6bIpy2EGFv4tGuPnjZ+3Djr0qGda1MKxR5csnqtTZ87z05LUGGYC5XK3LW7zN6YMtVmz1/gmgw4cvSY7dy1x/dERBMC4WvYoIGNGX2Zde/S2U0Qhm+c07BHIJhWjoE6Kj6WwSwIU4s4UAuWLLNlK1Z6x4iAcCNYl1w80Hr1kMOrhoMfDRs0tMGXXGKt27T1Bs9BKMTrFoFOtb9ivz334ksS9HpeR+hDfJkNuWX8OJXRREJ80qqro7VV5x4+fLg1bt4sIMgByAMfzga08fIli+3ZZ37vbe7tKhpgIdeQJhKCZicDcbqHnT7q6J59DG1bt7ZbbrrJOoqnUXDPDmenT4LrRYfCQzl5CI9CSKHiwH5buXqVLV2+QpU66bZdDpQXHH7JDpFMwTGe4RXBWK1GPSjhjYLrvVYhiH0Arogns/9moF2Hjnb9hJts9BVjA4MEtWvXst8//4LNWbS4ID3XR44ctWObt6kzpSDSyEaZ4I/AfQM5Stded71dp1Cnbh0XODKEmYJCWmi8CNABP0j/+KM/tg0bNlhF+owc4G7WrLFdffVVNuGWOzwtnYBfNFLjZnnhYkGF5Vo6fFbb0sFwANeu2+jCASlhFKtjQy6+2O79wAPWu1dPdxahrbZGt8ZNm1oD8TwH1F0UEfI1CSBUeSEUnDl90nZs32rLltERV3m8a9oCQQl0hBguuIJP4Zc2L29bboMGDHDnOYKXLp4V00BEMZ+LoXr0tksnqpyZofiYvGVff9aQxHAYQ1iTDuHECT2TYPszX+8OIdh2p3zeNOv0QT4N74JUBF6J9DoC5kar1m2leXtZd5kchI5durnW8j4DZHBRT9bIc/SKJu6lKnkaEqXAEM1Or559+1mX7j2tW8/eCr38mvLCfQjcxwANXbr38LQtUm+ZzuFkpLTUBrdo7Nazp6eNeZprSM/OqNAmrNZBdzHwDOct8jX+4lR2kvffvnNXn7OFvg6dOnunyGpySPF2zfAnQmjvfDzanP0DvlWUMr3N07bNBKfDQ3wW912cUnvLbCKN8GTrQ1lukxeR4RRUQV8E9Vl6RWHvKYTCZ2gsehz2SRw2zhbcRssE8vg/OVdZCKVUTejZn50bQoNwEcJZeOJpT9MAx4+nMe8F1NloFGnUMOUYGowuGJTV2XhuvnfYBVl0uhAroJ0JXHsFvB5pp07rc3asGfD0VaTORIdkmESIin7Pp82VNnsfUIR82RGqyvLTupwNgoF61oTFDymsigLPF3KMCJUCKCUIdQnwyhY+ofcfPHDAHYey3SEc3F9h+xVyFGeyOENlo8ZQs1YNqyH7NXTFIhAC30V2NukG9DzQsd/2lu2xsl3ynvftsz2i6eDhQ043dnGYdkObyhZWnoqKCitT+vK9e22P8jDbssdnXEI9ysvLbYccL1YQGW0xJZiwZ+qO4E5srh6KUz2wZxnJdgvPYZVdtku4REeFcLG07cKegUIByoPHZqrNfRA4hRD13kCZK3NTMbR5MeLzKKgmToVXSolBEAPgmofhKtw6eP9Wo5IkmzZC8b1iFFdIMr2WZWSGtixEnH4Nbv8t1VPNNq5fa1MnTbTlK5Ybm5ORMZyzFavX2cnjwb4D/Ed/2FHfslVLayj7lfJJf+jIERe4Y4ePKFGeRoQWM8IdyrMA015bN2/yfQjQcVQCEmzcxFatW2cNm7WwPi1aatQJtPgStmh89c+v2+Kly6SNVab6TXQWw+qkHEHdswiyc88eq1OvvvXu10d4xSslw6FjpSy2GVSTG1r2S9Af+/Ej7gAyRDNv3FpO0egxY+T8DbemGRsaPGHkTHkEOAvyfACgibcoatPxSKu4XHq/K0wfIZ8mTaVk2Oy5kS+CHharq3iPrJXGjpMqzRenYEhUjDfV9DlwgVAkmqAqpIVQORXkoB2Y/8wDNMSQBaUuJkqwbctmmzx1qk2fNTfYqkpSvUY1O35ctuvxY0pBHho4kVaq4fsJxl1/jQ0bPlLOV0PXlCtWrLAXnn/OVq1Zp/vToW7k0i9aMgpUVXD6zClftpw+Y6ZNmznTDh4KewrI17hJE7v88lE2atRlbmPSGEyD/f6Z5+yll162+uleBpwtL0V5aAdfgFB9sQtbtGhuoy8bKRyjrUnTJmmNwnCd8wV0TcfYtGmTPffiH+ztKVNzZglC16VTB9/T0EM2eFZwA1/jlReZgqjJXROPHcr8sCKJPztLKkFERbY4cxPB6+JPMgWeJ8g5018P+lOUnwb0udj0HoCxPneY5vNsafDn54iLZTEHHOZDI7APINX+Ak8ff6UBC4U3kVmwX8PpTtuuIXHX7j22W9qJqa0Dig94A9Xkox5NmzSywQMH2Lhx4+zmW261CRNusstGjrRmEghnHQ2TgpJ7o8cOXRXAB4blXXvLUjrKnJZde8qk8U5Yz+7d7YZrr7ebb77FblGZ42+6xZfADxw86Gn27C0X3cqjEOmP+dl8wvtg3bt0seuuu8Hz36z8N910s42fcLNN0C/hJsURP1rCzStKZcK5Y+cuxwO+HfrdJ9PkxKnCBR/4DG+crVnWAplqw3tmBQieVH/yIeQvDiFfes1viPLVyagcADqf2+wxUwrC6r8IdlUtkOkCZ2+kvxiomLQ+hYAKR2b5LQnZHGgcxajC9Dw0EIGcWcZkoZq0MZP/NZmIFwMZgmuz6w1vuxIxVdFQGWAy2UMnJ2ee3dif9WSi1K4jR8tf/KvucQApnG5dkY9rNox5zpQeNClTfPVk3tSsXVf01ktDXaujXwJzotUZylWfiA8cjt8ROaMq1bFKNgPZZ44ixfM/BmcjpjTIfFRFz6FZsoC6L5gk/0uBSKhRU2wv4SuVgrDiUi0dxtDW0fMOS8AxLgb47i8CZgSboZs7X3ZFs5BOQBwrW7Uzq02lgDR1JUTs7qcTOQ3CwyxCbgZAIWoQgHRAroP5T6RJNVJ8/hHbLMMeinOB74WQSZTLy4X/508amULs5KXAqSuWUU9fdZ73Ct7R3ElPIy4APJfXsarMf2lqBaCszIZIxLkLRBBwUHwzsoQnbFwOoYYaL25oIbCTiik5hqOjR49ZhUwJvHrC4cNHkSRPBw42yDgF+nNMdvK+ffs84OUT4vXevXttX/k+x3H0yDEXVBqBvbk4MbWgQbRRbrEMnEf1ckAnOH78uJdbUbHfymUGZOlgVoLfgwcO2kGZH7zifT4QR4nKElq6CeJt5dT/fXA9VYyY+3MUJucM456dT5U5ip3nU0aZR1wGLz/c5LOFi+IZBKAYNUMmG61ZooyA5vdXtVUmQB6yEeL7Snmo5pP2V1051rcDnnHHKtQ1p8lQnunq3XE5b4cOHbEfP/6k/fa5F91LRjtjnx4/ctQuHT7U7UME+IRs04MS6Cd++jP77TPPWm0JdKwRGps9EGhWeIBGPXBgv+z1EzZiyGBrVF+0SIgZwdjy179ff6tbv74oSGkSkA+AT4V8CTchjjcPaliZOsevf/esvT1ttpsHdLIw4qkjosm5VwYCNv+69Ru8Xt5mIhpU4PMSM2UxYoI/144ZqFmT8xJqB14qkNZnFWSyeFl6ks/DReROIcQ0uaclRnbK9/f40LqAHpOCvNThbNq4JqMjPTs7nEUIjpjiM4+4zPVYHuWehQrl7wOUiiM3m5ujIwZUUyKfsE8T88OVsLq2LHCeFHr06mPvu+8Ddu31NziefP3iVUhP59i0cb09/9zz9vxLr/lO+wj16taxa68aa3fdeYf16t1Hw359279/n709caL95Kc/l4O0N01ZNbBJ6MpRI+3e991jQ4YO92koym7YqJGvvtWT7ZmFbD0iX0IjcxOm6QAalX3CK1attuUK5wMII8KFEUWLOugnvcqB85m25VnRQ5eFTLvQHm6CuRyEds/nKcqcQqk297xFkWBj1icXrx+usL+jQ14JTwrV2VkVTn3JExuBzHFqJYIXpt7uJbxHgGksI7L5IgJaLJzuUrzRWiXqGQzNAlNaLGsOv3S0jRw1xkbkwuVpCPdDho+04SNGWocO7d0GBHxFSlBfzk3b1q3sEgncZWOuVNoRdtnoK6xHj+4u1ICbEQpuinCt3xgQLmzcVi1b2qBBF3tZI0dfrjDGLtJ9y1atPU0pCOv4AUo1DnEIIeVmywyhkI5IF+k9r/8NvzHkIgUoAoSxWJAA+M+LBZE6ZIBl+v/2nuwcIXmABqZFsx3FQbfvnqHdUVuloXp0JEpVoiQoWVZrAE4T8SVQVIqvohwqgVNVkg6nvqoqnBuYswWvu3Nq3BwmDdd0WDYLxW2QTGOdOHbC6clDyBMFoxjilNGFQKyn/9UfbgtrHu5KF1kcyQAOjqChQuA6xHtEEbhmFprK6AtjqDkxjt9jUogRRahRbF52eh+hcjlKm8tf9JTbUhkyUL2mhjqG0/OfKQh2VWBM2nMJrtqDZ58NxfGhQlk7KYCv0IiWaOMWQuVagIu5YDZucJYX53HhyPiKV0aTAwxzgZZidgIpo9Nn3qBysGJf9zqm9JfMrziE9rgEniOfoMXp0TAPPdB19NhRj4NegmdTcJyON/1VIC6UFUPlMp2m4rT+Sz3y+XhlPsanjHeA93qqehVEB/B86bWAdJ7KcZAn8jIfCmgRUi87Ewf4XK2n91sHn1VQ78lEZYCSQ+mlQHnJXNlID1A5sr5stjYaXtn4zMpOq5YtrLWGytatQ2jVqoXHxZCLT+9bNG9qzZs1811c2JQRKImKlCIDGglZ2Lev3Ba+M8/eeO0Ve/2VP9rrLxP+4K+Ub9m00UeRCAE3dSzE4dqE+TdG8/QRHadJ48a+Qb1F0ybWsqXqqDpRV/a/Zld/yEI5vI37zpzZ9pZoeeOVl1N6XnR6/kx4SdeKe/uN12zblk3WoEH9PH/4hWfOu8An3r2Dv9jJcd43Ag3P0nbzZk1zOByPcLRt08p/PYhucBOaKS1vOuehMj8jEJsVJQ7BYxWQNm/RvJm1StscWkN759u2FWWm8fzG+OZNm7qMtGjRUqZPxnRSYaFt0/sUSlNWCDV98wQeX4ogBofsdQpdunazW2+/w198Y4j1mQc1Zjh10KRRToderrQIIoyn17kWVCS/7PS/6tprrbmYEQE66EAIWLj34tNKgC3PTIAzFZ5/7lmbP3+RazpalHnYTh072G23327tO3TKzURQN3q218fvPdrj4+61GMnJkAMvHmL33HWnb3SJNPHaz5Ily2312nX+RmrcAYU9uGbdRvvd75+1hq/9CaUiyNMaNJ/MFDSLotFQ14wdYz26d/ey0ebMmtAhSAd/oOv40eO2YeNGW7x8hR+yhxMDDvYktJQAXXvVFer8rdNCxGvZvcw747P4cVXEiUbeErlUfkAzCU0OIERAlWNw8Dx48xpxiFcU+3wHyF6/TW2OAwuN0Apvvf5o3NTnQT/6lKTy+8poqm2xY9nKecVV16jtG3ocIIlzXNTX72n6dNHT+c4zp6IyBC9FxDhTw2UestcptO3Q0caNv9mGXjLEmRgEDsGQc6BfjPhIcKigmKDKuQb0chL3xDt07iIHq5Gny4EqkPFZcuC0FdGye9dOe2f+Qps6c7Z3lAjbtm+3QYMHh/JSgKHYsi5EaVwA3VEe2QmScxqEV4ruve/9duRw2HsAY7dKU57U0L9x82Y7czi8Yg6/cV7Lyvbazt17PO25YGDfXnbn7bfauAk3SWDVwOJXwEUnC4KL4LDrbeKbb9rmrVtdcL0WbrMm1kQa7OZbbraBAwc5/+E300eYfNjzzNgACG5DObEtWmt0y8xuwINinuauI/+51zXTVczgNGnWXI7raPE6mIou4CpbhkPatiGbT2+p3alXzkzQL23drmPn3HkTgLdHalqE+7R4bhXSWP9bCcr3liXf/Pq/Jb26d02kIRN5qIk8VM968/jxydqVKxMxU7j/Z2Ff+d7k8Uf+K7mob28vGxrU45yea6+4LHn5hWfSlAFeeOZ3ydVXjE5q1a6ViFGejnxdOnZI/v0rX0okdGnKJFm7annyd5/+hJ/aKKbn6idTIHno/nuTd2bNSKSp0tSlYdOG9clff+yhpHWLZjn6CLVrKeiX8rNBnn9Sk5DeQyP5hg6+KPndL586C09lDQrKdu1Mfvxf30kG9uvjuMgf6R40cEAyb84sTxcg5Dlf4LTGT33s4aRl08be5uCFRvj98AcfTNasWJ6m/J+F7Vu2JP/5719J2rVp4/WCj7RPg3r1kgfuuSuZMXlSIkWYpi6EjMFRGWLnC1fCne2iFwrkPVt+PavKTC8FbuJ4iGZOoNavM5T/pSBOx6EhALRIDIr1USdLS6CDagWNkq2Zm1IpnsoQaAdvSANfiuqjaD8AOwd/ufqKbIWqaAMo/GzPzwWF+SmvJPnnqBLGXcpo3RUl5nWNnTu22nYNk1s2rJfTs8F2bt+qsM22b92i+M22bfMmdzi2b93sYdvmjSEobse2LbZLduIOpSfv5o0b9Czk2akhHVzg2KF8O7Zt9Z1duSFetESSQsMVEZeKAs+cdr8uDdTP7aWihMHEgQWF/Zfhds/OHaFuCpz3tWtbOHqJFysBRDH8A4RQF6D3EBKkw2BImyZ0k+XA/oPOF/i1VY4kfGAzOgKeAyHBbHHbN43KgegOlc4/QdCPHj5ie3bvFD+32E7xkzLYSM4rNQW4Bc5T4XA0hBRo8907d6v+O/W73bdtwgt+2Xu8RXY3Czq02y7aUOUEOci3u8tCVja8jQNNbEfdHPMLPyt+WVMPcB5SR0IVUDNOZwB0tMh4NbNtVUG/f+YZ38eJ7Qoylv9IQT5vGP+HEND4YarEIyQMOcEQ03xFSb/hrQN5xjXltCkhNh34eE0Gx+fAwcPByY98hhhoKqpD0GRphTN0E8eGmZgdoJGi4Hodcw+jc5YvgPncDWtW26uvviLbsizYcSqL87u2bt9hfXp294LAR13Z77Brb7kdYq+AOh2oKad2vXrWmreYmzUJdZZ96o6Y7M63p0217bt2pXVIfG/uRQMGyHmRw5o6UZwbEe3IQFkefPYlpTcC5yxMm/S2rVy10oUP+hD8Fs1b2LDhw63/wIHWqHHTNLVoVJ0dR8oPrhGgNevW2TNyepvLAaRlnXei4UzCeRJheo16c5Q++zG4Z7oxnpbpo6Bwq1oeF50v/6fi4BF7javXrO6n1K9YsdI4ToA6ZZqFhgz8CTGVoKa4qR9K8f8eyCebx7bv2Gl/ePlVMUBIWUETchcAT0eGUDUgMtKFyZEEQiEYCJqU/OFxEGhVhBoKyMdhw4elNWB4iBVwkbvJA1hDmWn+XMgwIAXuw9KirpUl91wRlB86QIhlRW/lsmX23LPP2iZpCT/yX48ROs5yuPuuO+2ifv184/mpUyds1apV9sbkKbZq9VpvWEejqjVq0MAuHTncxoy6zKe11D3klNayP7z0sv35jTds9uy5Xh4Nz/TY9ddea3379remTZu5wIKIZzReMXhcUTybbV790ys2deoMf3uCDkkn4aim5N3T1l5OdU5wQ5MIAo6IiTZZu36D7dq1O7STHgShC2li2xLPHhcX9vReHOKP0ip1Gh/iQjrA8eiB06/egugd95dqT3ib58Bx+p80ojLQHbywbBK/FuGs6+/cucu2bdtp2zV8bN+xS1p4h2uerYrbul3Ptu/0QPw2xW8jTulCHGl22BY98/zCFfIEPMTH/Nt37LZ9ZRW+/AxNkY4YCggEPE2gOz7iFyb5huUQlUIqnEWMUGw6Qig+fcTUWrk07VZ12p279wZ62bAu+nkz+bLRY+yu++63O+/9gN165z02atQoPzOA8w68UVJELBlzaOCEm2+zO+55v93xPgX9dunW0/ZVHEjrLNzCu1XXbCQ/cvhQoFOAZsKs8A7nMXkIJkhhLIsdW8XDzTJpoJWTJTeL/5tFO/PMlU4OSutcgEW841sXbNCn7WK7hnbKt623I22r+IJ2p13TPPm4fDqXG90H+ditcvZYxb6KsDEp02BFVSsJ1aPqL6pCCkHDZkOcv4y//51QCYfuS0Nx4yFw7LkNWjwLQZzPD1w703io4RQQCN/9JeEHgimRbndU4LV4Ogd7eZnj5KA5TI1i7nkamQCNGjcxTs5hGgiTIX+KS8pbftE2rFx66wVaGAnCfGwc0zKgCIbgmBaI9+Ak1jUuQTzltwCJ19l/KkGOrkyoqq3DVGjlUCp9Lq7Es0rgtAaFmiU7C2qfQADgGiMTSlYtjfLH/00oxlGpfA9pOv+TB2ewQkF6gSf1qzzk0qTIcmml3cKzQpsYZqYs8XKQpxwDCzjJTQyZchTI40JZ1C7gi7+54DERAiWOVc+gLIs3QmyzCJTFIcwRm5fj//kT4rIgbOFfBncupGn+ohCRFiDPlBlHEQ/8kLAgcQFUx8CmXhzeQDK0DZtdMKAJXGcDB6uVivdnpdJfSFppmOy9ax1pVVZhvCFSQAdhDjDJHd/GJT3A+VnFzYQOghHuROg+puWQCvyyGrJjg8ZiAr2W7811LZWCy4Bu0YxZOrhCYHBcT8quhN6gKc/IzjxhG9avt2lvc6L5Wzb97Tds3sxptmn92jSv/qWowMEyLgsIUSBZpEGrv3uGD5CkvEjpPnLkiM2fO8umvvW6zeQE9SkTbf7smXZI/oE7XU5ZAOgFv3vpKfhbwsLFymfkx9kCbVVVO5YKpdu2ahyOP72GHjdrGE1pg8ikIqh2/NjRZNJbb8pheF327O7QMP4/Nlxo7ACIDIgYGokllEYcn8G0MCRHc+Ts6bOAGYPRPmhAfxs/4SYbNGRo+sRs8fx37LU/veZHQfmSowCTp13bNnb99dfbteNutDrpqzecFjhRdXz9zbf91EE0KvZj0yaNbczlo+yaa6+39p06e92xM1987hn70pe/ahs3yzmrycqfaBP93bt2tSd/+jMbM3as46XTrFu9yv705z/Z0qXLglMkeqFj586dEuiT1qxxY5+Jof4MlyvWrPO3iqMzQtqGDevbTePH2xc+/3kbMHiIdxC1iy14Z6698sortmnTFqULMzL7DxywfXv3WFM5fHVldoAHHu8/eNBWb9pse3bv8WV3AGHt1KmjPfj+e+3+Bz5oPXqHw5qxh597+rdy5KbZgUOHUqFOeS9cXAWNFyB2hLwkBDmAX6TLp8xCjHVsLn/Vkuo+goRnMV5qRaZaImcNXPCjrjrtmNGX2jXXj/PTeELpheBflmRa4siRQ+nOJQjSX/4IfyWy0jh/noKn8MZVvkzPBnw6iX8ZRoRLEkeWAEqjxvHCUxoAymEzNi8dxn20AHOtR6V5Thw/6tqI5JSB1iItWjPSSAdglxZTWmjpmJblyYYNJQB185tnOGb+md/92v7t6/9hm7duzwkuO626denigjv2yqs8LQDPnA45skztscON0euR//q+nya+FWXgnVZ1ot5oRBEQeBAEl80748ddb3//d5/zPcFofYCOcViCxVZL+MM5YOzReOqJn9hzL71i+/cdkJDDQ5RD4FUEaOa+I4J77z32wAc/bD3iKeNKfEwd49hR8cPbPIDXU79gyeIqBTENuEKuAIFXYUEmpIoQ01TG62WlZUe6WSKuV79BroNXAiXMg7q1/rz3UDJ/hFLPigL5K+E4H7iQ9GdPe3D//uTJHz+SdOnUwfmYWw5VG3Xr0jGZ9PbENGUWIq7wq06VfP0rX0q6CUfN6tVzS9IE8GUDzxo1bJC8767bk3dmz0gkSI6jEPL0blizOvmbjz+cNG/ahBauErff16qZdO/eNfny//nHZF3mA32FEHGn4YJkACgR/9+Ro1zes0O0BwJ4L/tvhJL5I5R6VhTIXwnH+cCFpD97Wj8l8dRJH5oLIKgDZSuVL8aF36CJ0DzStLrmPoaqAbOqsDnyQL48bncedeux54Hb01b53LHkg6c73wCUiL8gHEUhl/fsUMApmI0tJ6l3pvs9DUiIm5J1HQPx+bRqpOxvfM4/v1Z8jCNNVZDiyOOL+WNInxfEkSbEBZq5przCdLF+uUB8MYhxQTCKmBf5ST5+oIGQlpUrh2fcU1ZBA+Yh1ClMQ3rgXiHY6ikOpzVcZ4GFEOeNIGAtjTsE0gfcTl9IULreEXjk9UrxkJ5QFaT4PY+Hs6QVBD5BmILnSx9cIFRjlxKHNeMB84qzyHB+hzciIJ5kwWgO83Z6mBbmq1BeeIjgL2z0X9JGnurXj8zkQmlZQbqo/0XWqXMX9+gBVtb27tljq1et9KVW9qiSMdhKAagzzIzxWdmCDoTNeaJ/ZOMaISyggwZRWgLzq926dhMdXWUXh21/hw4ecMflq1/7um3ass1tXCokDvj+109/6lM2bOgwtxFjmQECPdjhrKo9//xz9tbEt/1kmfDU0fj+ZGZyVGGPpbGZ4x08eJBNkEPZo2cvd87gR2M5YN179HTHkVkHYOO6NfaD737bfv30s7bvwEGf/VDJQiWe8Fq8Y4VX2JnVrZVovmLUKBs9erS169BBHvwpq1GthrVr19Y/OMMSc3z7hdmRJUsW26aNG5z/QRbCOW98lKRbj145m/O4fIsdW7f6yfQcPeUdSvF11Lbt23e0XnIEOWc4AocBLl2y0Pb7fhRScuRqTWvatKn17tfXWrRo5fU+X6h29OiR5JU/vGAvPPes8Z0slDAVrlFT7FDlQyHh4A28V07cVrQTScW49ht+8D78OjQi6V1oFE4huHqGVuHguQ/ef7/desdd1rxV2Ax99MhRmz19sv3iFz+3JUuX5ybqWZEiv+fVHwLMZEonCzwniufe25SPaTKmzXw6iET641NiSoJz16Z1S5tw4zi7+fY7rbMEmM6G4D4vwf3K1/5DgrtVAlPL+UCZdeXwderUwZo0ahjW7RUPbgqO1JCO+J1l4cyDE8fzK1YII4fQ9e3by5dicQjp0OxzKCsr82kuXr4EJ05Tt65d7a6777RxE261Rk2aOI5N69baI9//jv0Cwa3Ynwou03g1raWEdIg6AG8cUBY4KvjeRXnYyEKHgf+8aj78kkvsjrvutuGjRrtzChzYX2Hf/9537Y8vvuALKyzMqDbWsnlTpb3H7nvgg04fwKabN/78qr36yiu+KsZ0FsCh3VdeNdYefvij1lEKwRtFsHjRQvvGv3/VNm3eZKfRQIJ6cmT5jt79Dz5oIy67vPL+7LNBRfne5Fvf+FrSt1f3pJYM+tq1avkXtevydWu+rJ0LIT4+y8fnQ6n44jh1iqRJw4bJpx76YLJ2ZX7fZ3nZXjlFP0wGXdTPFXk2T6ngX9quTSiKV6hXBX3ZgFPTqnmz5CMPfiCZP2eWnKKwHxfn7KlHfyTnrCPcLXB4Am/yfCA4n0qWV0vp83kJ4LtkYL/kqcd+mBw8cCA5fPhwsn9/RTLprTeS999zZ1Kvbh13qsivjpn07t4t+fbXv5qU7dnttAHr1qxK/vrjDyUtmjXN7aWlLuxhvWrsFcmC+e8kJ06cEO4jyfatW5LHf/CdpF+/vuGL7cJLenh36dDByS+eeCzZv6/c8WpETTauX5+87557nE7qytfhSc8e5C/KwYPeCKuXL0v+5R/+PunRpXNSp2atXB0bqG3vvufuZOXyJUJ6Jk2dJBMnTkw6dezoNDtu8aa+6kt7P/5f3012bd+apjw/qM7QyRQRp4uHSWI2j+iaoGEld+2bSrL37y1gcrB7iymjsPEmQqCDvQpwrlTe4sC+gsrx1OXctKKNwzUfGEF7RirQyNKw4bYAoP3UKfGoCFepEN+4iBCveSOkcYOG1khmAMfbN2nS1Bo3buQmibcFbUB+pad+8CiLxylMzR2/i89EMDiaCh9TcmzcoQxek8IcAQ9tDI/RxM5/XTOaRAhvfIc54Jwc6DfmK6wPssJXzhXOhHQuR2o/FpIoMwvwju2VjIiOm7T8UobS+0h5AeDjjJsGsmkYohh6sGM86NptxKLg698xTTaUSFscAIZThuBambO5OPhYPVF4QppSeYtDaTqqoE0hmzdbBvTkBRWhYKteYDwMD45OuC+JXziK6x5GyBLirwai48aN6YCfXaF2I4+3gXACHC/Fsf7MTUeAb3n8GVB+aGVxIQKCzyoUZxQA0EhGTBTKcHtbQg7AAwS+Zo3gc0AHgWLIV4sTblK6ANouvF+m+ipVTBt3jYW7DJF+G+49baI8igSny4JwXQjkPvuf4nTwa+oqgqsjTB44l0tMw0mQLZhLn/76j4Q/npSdzZO/DiFRZr7o6BvKt22xrRvX2+b169wm9I3aeh7Twtxcfhjl8fGopsCeAoj0ZB5wDTOZ2I94ebmQRqOxsg2CTUwcS64sptSUPVhDoTqBdFnEAm8iCRh8ibg9veIosxjQNDih2zZutG2bNrjNyibrw0cOI9MFwAhYUbHPNm9Y5xvONZz6L5+Loh+FeqWJBT5OZCKw2WtI6OvUUR3EO04t92OuRCNp2cOLs7dVztgWlcFm/yNH0zN+ndfwq7bLwKGD+72NtioN7bVl03q3zb3NEfiUTzkhpJNkAOGXSaXk0KQOA01KD7375bjxggEvFEAHG9L5LBnTklVBNTExefKJx+ynP/2Zrd+Y/wg1w1HjJo2tdft2vgQHPzDWcSDKdu/xXzRTaBwauLY1bdbUX2FGc0bVD/PCEBPu0QqEti1b2MCL+lsrOStoBg7h2KjyV61f758OjU5AFE2GcEeB0tDPwYOHrLys3FfDCiE2XCgPgEZWYfg8VaNGfEusug9xLZs2s/HXXWN3vO9e6443r0Y4cfyYTX57ov3XI4/YFnnNODLgxIQJh+BV+FAbhZIGady0iX9LrH46M0F994o2PGn2mkZgKO3auaNdNnK49e/f39PBp107dtrcd+b7V23cCRZOTA1eiR8+9GIbMmiQ0y/7V47WXps9Z64tkgN7THxCe8HPunXq2qWXjrQf/PAR6yfcAMvbfA3+57/8la1auy7lCCOKnCgJUa/u3Y0PX3NcKWyrkHM2f9Fi33bIJ6xY6gN3NQVWDQcM6O/lgKMcoZczv2PXnnDKZUpHPTnVY6+4wj75yU/5G+HEAwvemWf/+q9fsi1y6nwWg3jJGA5a9y6drGu3rn4ANuZHPdHDLMugi4daa77KlOLIggR3twT38VRwN+cEF9tj0ICL7I7bbrbWLfNTFatWr7HX35poGyRk2JM+XaX0HFM/athQu0zMa6qGxBYEGDpccBkZSavrnbt32x9f+7Pt0C9bA0U/Em0N6tWxy4Tj4oEDrR6fN1K8v/+kDoPgggftyO+iJUts6rTp/sV3x18FeB5pgC4SmLGjLhXzB/gbryyj8gZs/4sGWp+LBvj2Q9hD+m3q+dPeftu1HcM1D2ioKdOm2bwFi2z/gUMuRKSFfjkYNnbM5f4N28i7t96eZDNmzbZyCXoE0jMz0YD9C2owNz/Eb+zsY4cO57686J1Cv5hP9Rs1DLwQEfxDOI5K4x49dMiv4X0QXPEuFdy+qeBCB9p80YJ5tnPHDrdz4QXfhJg4eaqtlDAfU4eMbYhZMahfHxs1Yri1TT/jxVL5qpUr7Z3Fy2zH3vIgH4pnVqVty2Z26dAhErKLHS82M7NB3Xv2tKHDR0rx5d+42L1zp02f8rY6dJnoDe144ECFLV2+3OaIp3z7mJMuTwpvowb17LYbrrN773/ABg4ZFkycIlCrIBg4EsGZIAD8bde+vY2fcIvP98FMevfkyZOkHeY58Z4e3tWs7se1Xzx4oN182+3Wuk0716IA+SJOriF45YoV9sqf3rA90jShQ4TnHdq1tUFDLrG77rrbNUxoROgLgguEjlVd2u1F/+7CWnU2pni8sWlaflIgP41aU5HNmzWxkWqQ6268yRo2auL0MT1Ut14Dn/qJ2cDTtl0Hu/HmW7whMIuw43hfbuuWzbZQDRjrg7bEJGjfto1dddVVNnLU5XqmRpWzsUMNNX/+fL8HoAvcaODjNJ4euGOkOKec5+HK85AW4ThQsV9D6f609jwN6eAI4G2QhlyiFLBB23XsZE01GrDvgTTwn/n6FatXu+Yu33/Qh293ppS/3ZVj7aabb7Ue6RkKRzWivfTi8/bOwkVqrx0p5tBZWjZuYAOlCG67827vkHQM2obRMs6LR2jRqpVdO268f82ItoSOHdu2eWd9c9JU2yXNTXuA40C9uv4CA1OkWecxC6koB3YUQx1pBQ5ua9m6jQpubc2keZvIHODQtZRtHmA6dg1ebIuWLZ1R5In5stdNm7ewFukbAwCE8eI2G1HoGI2l+Vq1a+cVbal0LVopn34jjuaioZmGfM4W4L21lJAUdJNW1BsyB+GgCnC3SPO3atNWv63UQep7Z8gCdhoHaLRUGmjgunnL1uJH3ciwPCgCcwJ6mqhuTYW7hehkxgDhKyAPgC41up+krlufI/YQHnsdFHLkp889fXrtioZHIUUOiM3GUT6avYlMInhHneEf1z7kC4/zHbw+7HEgSl3nN+loLz6gyKtHUeshJWybonQNpj5qwU/nl/DSbg2UPi5qRID/0BHbkvS0BV8ZDWWH+gGYqWjlPBMqg9SXsy/cFQG96pSGVNc8KWDfsW2OZ2gN7Bv2UzINgjahx5wLfPIeaRf4rixd01P5ZQjmI3Znh/CZJvCg3Xxfp2jE8WE2wBu3CGAGz6H7vQBal+P4K2FWBA5d1iumZmiP4GmTozAXAkUI9Q6/xU1AFJ0vTpFlg+9dVV1ioM4ERnw64rnAZyZUH2Y24AY4w9vLBA6oztcFf8XrwkiXxjlxKYSpxML6nS8w9Ya5Gd5kCc5oqDN+UNiDXBVm8VbMg6gixkUojkcLM+/YQD2zft3a1rB+XbdJ+GhzfQ0XxT2tFGRtljx6hsbTtn3bVlu+bKltWLfO1q1ZY+vXrrVdO3f4/tQcJGEZkiVRym1Yv56ciUBDXdEkItKEGVBBCFIW6Gi8wr1Bnj1leVirMnVPuV6+rjfIm16zepU7ZtlpLIBNOexp5bikzZs2KWxUvtX+8RAEIiekFwg0IMJSt24d1U11VP1CqG+NGzYoiKMteMeNjrl2zSrnYayP1yUN1G2z6MRm5QMq2Of1xUfHIx7WVNsxY7F61SrbKCeZNlgmX2L7th0FTmYEumWmAS8Y2F9cv2F9P5y7juzbhg3r+UQAc9ANFM/WgKoKqLZvX3nyUzlnTzzxhK1dn59VgAm33DTevvfd7/rp3342mGDVimX24jNP2zx5wTg49Fy0ZNdu3WzC+Jvs0svH+lBxNlgnobj/Ax+wOfPm5Xu3GqqOBL+bPMy2cvRgyrvJGdcOl44cYbfeeZcNHjI8pBUsXbjAXnnpD6JjngQ+2NPQwf7XlarHySNHhCG89cCBbyPknX/6k5+U7Xqb6Gvs6dkE/ptf/NQWLFjgm8DppXQqykQ+8XDhGzyJH6zGsfTXqdPOQZmtW7eSndvaGwDA6domwd2xc48dO8rsi0dnlIAoUyT3+WfhYdReaB1Mry6dOzhuRiHsUBSDn811RrYiaR1PNX9bdp8cvAaqK3sA6GDE41wiIGhGfylRuE+d4XX7I66E2MTO+b+UelyjJmdHCKnVEx7agBF07/4D/oIkH7+OQPyQgf3tbz79V3bP/R86L01fDJwlMXfmdP/A9fbt293uBS9m1jXXXuv+SDfJXimotq+8PHnqicfsySefrCS4N09AcL9j3Xr0dCcEYC2fTTl8wZAzCJjrJA/2Y8dOXdzGwcM8G6yRJnjw/vsLBVdAuWFCG8eHxjvjw9TVV4y2T//NZ+z68beEhAIOkti2dZN/PTEuFtStVdte+vMb9sTPfm4H/bytIAi8AjPsEgnuJz5hN956u2y2ILhzZs20r33lX23ajFl27MTxXN3ZhIJMvJvgnNF8dCJF6Dq8eRunAYMWx8Gkk/j0oOIkSp4W4acOCEUWyAq6LAR0QaB5hHnWsX07u2n8DXbd9TeEb5TBFDEH4XWTTGmhDZ6h8X/+69/YwvkLXDvyxR6eUidohH7fCCOaSN+re1cbf+ONdumoS9V2TUVnYnvUKX/681/YxEmT1HllHlAPQSJTiPyUSXnQyGhycf++9pm/+St73wMfdmf6QgGFs2/vXtu0YZ1reipO7Vlw6dips59Tx0aokrBn187k61/9chVnh92YrFm5vHBzs2pw5tTp5OSJ48mJ48cUjvu1vFZf7z4fWLpkSTJi+HAvg7KyQcOV72cgqDV9zf7qyy9NXnrh92nuAJSligc60qDI5PEnHk+at2qV21wtDZrUq1cnuXz0iOR3v3gqOXRgfy7/pIlvJlePGZ3UrVVLxoepzHRjtoKE1+/hiWxYxVfzvRzF9Ib9CCrLaVZ6x8Eeghp+FlZx+qqCn0EmOriGbnjTs2uX5D+++i/Jti2bk1OnTqquJ7ye/iu+B96fkLVyOpk3Z3ZyzTVX+34E8uZoFz/jZvbqqoc6h59pNmzwRckTP/qvZM/O7eLjSce1dNGC5LZbbvb86pi5+tSswbll+bpH+gb365089eMfJEeP5PcwXCjQDqFuoT4nThxLNJKHM8POIk7uyOnXQ0kojlYLs+rEkh+vkjBv58t/Gl6jFjoXuEOWlpdF77pNmoLhmoCmIK2Y51owC0E71wx0pAG1xcc3gvoqxOy3RKc0kp8A7qCVKDNdvpUGjR91CdfQoPLTvMXgeJQm5MeRSV+qLJ38vEGkuXPE51x96VdDO/X0X/E98J4VvhpuZnk9CCo40o7mdfqhj1/hhK8Ef82pXn3F13JcvHpPHiC0QagPjrPXpwicpR7/3itK/lC3UJ/atcNHbcIqZZqoBMgCCJ9ZKkXYBUPoBVyE+wxkO4Z6LBSnd3kgDUMxZkqcAQihFMYqQHgRxkq1VpzHZOigUbwli5IW03G2ELc3ZtA6BBxnKqX3Ib4ESPG4c+o40zR42dQ/bnw5KygdZhVsDcZGgEjHaTYHCTdDPt9nDrSoLJibpouLTIDPXqT0EHzjUnod6Qt7LArLOh8I/Dq/tFVBjS984fNfXjj/HVuwcKFVyAhHgAkwrE+vXnbD9df5nBs9GWATx66dO22jPOjt27fZTnn8OznYbscOn1DeuV2/HJK2a5efzlKmsFvXW9P0e/eWyWtdbW+99Zbt0TPXqnBbgLZl3rGevGRWgnAe8Cw51bpj587eG9m4vGPndncUNM542kgbsGDRQnvzrYm+OhTlkc7ZrFkT69S+vXp1XSsv3+eboFesWG5z5sx2p4v6ZunALmbmAjo8yGtn1gSaPLiGYlNKbOzChkDralgNk/Eqk/Tgob7FjUa5aDqexzKxMXH2OnTs6CtQ5WV7bbv4zL5dPpcKj52v4scu8X7tunU2dfp0P4WGkxx9VAO38OKsRdzwl83e3Tp3spGXXWZ9+vYPe2+V9qDaf+aM6cK11vkaaY7tQV5+nT542rSJdenS1eevoWWb2pcVRnaeUe+sgjom53bL1i3pzAuHHu7wvSnYtvDzQpVnNRUk5+xx++mTT/nyaRSkE+pZN42/0b79rf+0nr375hyuuXNm+VumS5as8G1pTL86FHUgJyJDCIJBIrQcbxVv3brNjzRC6LwhlbZR40Y2cthQ69urZ9jvIG22d1+5b+jed/CQDylRwNjYccftt9pHP/yQL4zESv/8V7+0f/rnf7byXbxdK7zCT51Y2WnRoplvI0SoKBPPms/tM2PAPenRco0bN7axl4+yHt26ujePUwNjaWDefOA8Arx1HKjtEqBFK1bZlm3b7bScItgALSx7sxejX8+eaviwURvvfvqs2TZzzrycwJOehuumsoZfPMiP0ccsOiLebJOC4NgiFBv8AS+dil/mpYmj8wKuUHbt9LPXYhzC21A8vahPL+dps6bNfM8FdAweMsQuHT3GunbrnmtbVrFef+0VmzF1ap7PdGIJLvzhlHRMKmgop122bbWy8grxhtfvpUVFU2118LFjx9gnPvpx69KtW64DsYr45a9+1bZLYcR5dpa0u3ftYg/c/wG7/IorrbHoO1+oSXODyAsmiNgI/ixzD1SI4MWLFti8BUvUoGnkewDsLSbuY7mqtffsMWOvsNtvudX3DrD4sWzJIvvVr39t8xctsgOH+Dx/Hi7q28c3xYTmD3T6ClQOZxBGhsdDhw75mQTFEGxaMZfkuictr5xce+21dr28eVaGWOSgg9FxfP+uJAmNQ0PPnj3D9klr7JDGOXUsrGjRWcBx2WWX2l2335GOWBpNpHmPfeMbNn32XC8nCKAEROm7S3Dvuvtu6z9wkAS5jh/B+af03Ih1G9mPAeKzQ/QNAK+/qIGOYUMvsdtvu9269+ztPKVctCSzK9GmBejcV197nQ0dOszNATjq/oXqCrYzJ8MsEnnWrl7pryctXfoH21UWZnAA6sL3LI4eO1wgO3wIe+7s2T7KZmGfRo8rRl1qQ4cNvyDBlXMWGpYQqhpCAIz4wtNbaDymPnAS3MBXpWJgk0T2vqo4AgzOlkfp9O5WrdpYd2l43rPqJG3QsXMXCU8j10qUh6YiP0Og23TCIx0EaQ7UA8ECsvgRvGIaCLHhYjqApeQ2bdtbjz59rL3K79yth3Xs0s2nZzp17W5de/S0DhoiO3cP9MUpmzCmBKB+LTUSdO/dR+mUX/lat2vvQgxAp//638R3lnXsorKUrm3HTv5+V/MWLXzIDU4SHacy/dngo5djS4PKYI62RfPm0n7dnaddhLdz956+/JoV2giNNCJ17NrN69hFoZPq3r5TF+ug0LlHD2+TwJNu1rRZcx9NXAmpbNqnjjQuTpZ3oHyzhOfECWhD7utoVCV9pPVCwDHFjC7AUqOEXHxBcwiUJhYS88VAvuw9oSqIz73D8OvlhvlLdikBOBUsciRMPjoXUk4ofehMCsxNhtjzglhuDKWAeHeUZKudDZjUh9Y4j5xpp4DDlzTZVJKH+H0GAG1LcL6rs7EBJa7MOd7U8QNB+C2kvTiUAuK9LqLjLwlsC6V9KBXFEVojf+XUZGjiKt7laM7FCLLMOw+QjgtTI8hBLDItVkJz3Cf4d+MIyDHghGpMhXd9yyLpzgIpTaTK487Sl1bRa5QOm2o0VlMoa69sz70afvnQMitVJHNZzUE1P8CYSfPdu6Bvh+0vL/P8OdyZkL+I4AXneFvpsT9LHwq4phOViS5O2WapeKf4sU/Opr8QmaaNeJwCRQUceTyxDnFTjfNGgddacFz3yE4tL5NTq3LYvgjeoLzydSoNQpjiioF2pVMdOnjYOGE8nrKOY3pAQ3cpYT4k/sUT59kSyanyfEgFZ7cAoF+VgB4C4Nf6w6k+7NnmFHfqc3B/hYfIh5ge8GlI+QuSwjTm/KDawYMHkud+9xt7+re/sXWbt0iFB9OAJVA2GY8dPcq/S4axjqrnKzBz5s73zyehKUgb7EjIEpPx1kQZAzhLphUHDrlH6c6Z4mlIhvdGcoCaaHj0nWaKY2mWYfGSiwdb39693ItnumaXBHPO/IW2YuVqP7vVN+PAAOEYfskQu+7KMXJAwkpYbeGas3CxvfrmJDuCAFMWD0Qj+NjbwJq+a2s9OyZh2S+nj6/p6NYBTUK9/+Nr/2633XGnv7MF4JStXbnCZs2Y5p2FHWEnpCFxMmfPX2Qb5CmfAo/Swic+W/Xxj33UHnroI9a8Vd55/MF/fd++/Z/fkGcejiuFhziLvD18yaBB1rpNKx9KEbb1GzbaijVrfF8BubE34VUY2VIBcOGRMy1aeF39hGjwUYjnSs/Qf8nAi2zwgIt8szvaF6eof/8BdrHsSmZrfI5aQMec/OYbtmDeHNVDWL13VfPvkw0beakNumRYzrxYvWKZ/eoXP7Pf/v5ZPwM3ElRTZkLfvn3thitGq7wWzovatWv6G+SvvvGWvSue49i6wytcvXp0t4cefsiuvOZ63zl4vlCNVbF169bY6pUrw+vOQlZNNsvGtWtt9syZtnrdOugRXaEiCBjfOLvvvnt9mRdNgYamZ8PUKPhMpTBt9fvfPW3Ll6/0L5gTj/2JEF1+6Ui77vrrZSt29m9zcUbWooXzfQ/EPnmqCAa8gNF8V+yIAnOmEcDFa+7N5DVDc+w0h9RJKtSA7GIDATTRUOzg54PTg4dc4jY6z1evXm0vv/KyrVu3Xp0sbIhhnrJzp0729X//N7v9TgkubwII+H7Bb3/1M3vuuRdtu7QXU0MIHbubDh054qMCnTN2cA6b+4QL7sP+Cj64ATatLFQ9qRvAkjAbX5iWW716jdLhuNaQEJ22Jk0a2yXqnEOHj/Btk0GMQnA7HllRBhYXNqnjPPv8844Dfro9qWfYxQ3q17UGbouGPQssFg2/5GL7wIMP2lXXXGf109fC+S7HN//j63K6nnVHMrR7Yi1la3/g/gfso5/4lHgXZkjWSHB/ieA+/Ywf1gxAC0oJm79ZIxZNUv9BMlOnXh3r2au3H0jYTLYxMzPYxtjfAwYNtrbt2xt7RM4bRJjMrHf9lWZ5ycnJkycTCUsyc/LE5P133p6IAfArF2RUJzffNCHZvmO75zt+/HiiIZuD85KjR474NXHAmtUrk9sn3JA0rl/flxvlQPhSImdlfeyD9yfLFi1Izrx7Jjlx8kSiYSn5wbe/4UvP2fK8TOUpXm5leRRaitOK2QVLraSpV69ucvmoEcmvn3os4XV89Xav61t//lNyzRWj/TVplnVJD44unTolv/nlLwo/OaW6fPLDDybNGjcsLE+9tpYviebL45czu771ja8n5Xt2e3kR4BlLnMdPHPfAuRaT3vhz8r7bbxHdtQpwd+nQPvn3L/2fZOvmTb4MSnraiTY6cUz5Fbg/c/pUMm/OnOT6669L6tWt6zyI9MA3lqCzeGmDIRf1TZ569JFEpl+OrjUrVyZ33HprQVpCo/r1ki/8/eeSQ4cOeVpg9fKlyf/5/N8lXTt3DEvrmfYp1S5tWrRIPvOpjyXbtm5O3j1zxvmPnKjjpxgvDNywoKf4xLSGaqSensnUCD2GHsu9CHJPkANB8FTr1g5Drk9SKx/p2SHENXGAD4foY9QL3TcDzCD4Jm5pSY7hrN+QExbDBDlAeTGE5b8iBALogr5cYAlYv9BVCJg0MiVEF8uJ0ERd61I+mgnWZoD8AXfe6/YVRp8hCVohW67PbBQVCQ6G6iLUHs/MDFNeBJZc4Rl8j3O04AQYdXjBEA0G3aSHP6RlvtQ9eGZbVO+60oReF4c8MbEucXYHfjtfdc98Ls9iOvf203uuQ3qm8Vhqpp55vGh5ZUrvCgFN6mWkASA919QVfsF/5CTL4wsBrymCxZCMF808JcPdKalyhn+uCeGaqaZgFjDUshcVu4h8zAbE4S+Ce8ilKqd04MJzju/yc31Kw2NcEqWMGFzwqwCw50JaVOXUdJ6wG4n6QTdvkEI7W/28jqKVsgBMAPgRzn447a8GnUkdmdh42XKhL9JKXupAHvCmJFUJPqsgGmIdI84IzJlgnmXB20v0RN5TOQ60pi4EzKZIjwdmLBScPj2jPPgPjZgVfOoffpw6HdoeiHmpD04z15TpefTrMyCRd2mIeWJZMQDQHNKVqEsqe9Qn1inSURX4Jpt9e8tt1bLFNnfmVHtn1gybO2OKLdM9E/b0YjQtPY+v79SsJcfh0EFb8M5smz9nps1W2nmzZ7ixfqBin1csApqNnuaNTUEeFwSalZfFC9+xBcIxZ/oUx8WSIW9XkIbyYqhqk8eFwNHDR22DbNmF82bbO6KXfaCrVy73/afY9GgBygIQ8I3r14mulB8zp9mi+XP9TLM4RxyBOsZ/OXqFK2p/Vw2FbVUISo9XjaYrVUVhDExLgYbmJU5egJwtvs2bNV3tNdWWLV5gMh/UXmGONNLim2sycRxdxaYcVj05I4z881THOeBYtNC3rQL59LjZ1W3Pzl02f/YsT09bLV20wHbv2u1CSvvm0nvd2WiUlq8AMGqyGpptRzo4s1QrFi8U3mlOAzzntHVmM5idqAqqYWfMnDLJ3nrjT7Zp81YvEA6W79vny4dM/MuG84YBDsm7lgnsXjNDGYLKsMOa9TXXXW/DRlzqwz7AV8w/95m/tjcmTrLDYiqVQsMwFPbo3tV6yqNsLCOeAyvo7Xzj7KSIxYxw3OqdR0TDNjFotzoXBn2sePyNmiqCx+pZjOcv77fx3S6+UcaJ5TgnMA2nilfIaRzqydDJXtZjx0/6u3V88ol1fco6dFhe/sZNzqPDRzh5PAzLNBJfK+/Uoa01adTY8aq1rHvXbjbhlltt7NXXWgPnR6C3GKBzrgTn0R89Yr9//g+u5RFinMRe3brYxz7ysH3oox/3d/8Apqumqb1ee/Vl27t3nzoHQlLdDopPZapLPdHL7Eoc7MCFMKPV0JCRN4eOHHWHjWXg2nXCUvpR1X1/xQHfZ11fDh2GDh31iNqOIZ4FlVp8/Vz8Oihn+oAUGzh5i8LbQ3hjeT7quNYMr0zxMewJE262CbfdkZsFopMsmDvHXvrji/5yJPUgHybkVVeOtbFyHFmQKQU1WTJdtWqlTXx7sq1ev9GFix7EHOmIESPsQx980FqrsUGKib9o8WJ74cUXbfLUqU4QAo3tx+Fl7eUZXjRwUE5wYRBDLV5lbDa0Jxp3y/YdtpP9BGmFGcKYrrnzNjX2mMuD5y/Nt1ae/yuv/VlCLY2SHiAXhbYUuLgKXwRSMlxV7N9vC5cutyXLV3ocS5rMSvBmxPXXXuenEWKns3ln2rRp9uLLr1rZ3r2uNZ1E1YFXp3m3LgotHauGbL+e3bvZbbfeYgMHDcrNjbIyxWpbnbqsqlVNb4DAn+JU1IJhP9s5+frmPGm+19+YaHv3VQRloH/Yuv369bUHHnzQD8vzaTEh9PasxvH+QZCwr9nY8tvf/tamz5ylTnjU0/gMiep3/bVX220332QdOrZXnNkxde45Ku+NNyfagsVLREFQYezp6CrlddONN6hzXuU2OEIXRy43EUJjeLl03i5de1jdBvmN4eBetXKZvf7mW35wHjYvZkJ9KYyG9epYv4sGWsdOXYM9XQycq8BG8h5dOzmfRFa64diSmydMSDasWyu+5WHim68nV4wa6Ye6hfTy+mvVTHr37Z1886v/muzesT1NmSQbN6xPbr3x+qShvHoJft7TVXBPVHHESxAdV/t2bZOfPPaoe8oAG8UXzJ2VPPzg++WVNveN0eQjP7MKhCzOcwXKi4HymjVulDz8gXuTRe/MUWnB8z9y8GDy2A++n3Rs187TwIuYJ5YdA7Q3Eo777rw1mT1tiue/UFBjJzOnTU4evO+epF4d8YkZFOGmbGnc5D+/9pVkz65daerETxb/q498KGmqcgN9gXcNxOMbr782WbduXZqyapDgJp/55Mf8I9Sxjt7uqs8nPvJQsmVDHgffCPnVk48lI4YM9LJoq9heA/v0Sn722I+SY0ePpKkvDLZt2SSZ+VLSplVLxwePkSdmRj5w9+3JtMkTfYarFFRnKMD4RosR3DbBXHAQvkxvB5SHv5n09DAFDQ9oXnpchFpuu3EvfHRf8qb4KMHL0hUp0lThTyxTP9xSTngo4JGeQ4fTUiKUiifO6U0DAK1oGvaaikEedxKnTUNmBFhBeqcBcHzpr0Mk7L2B81HNhbnEPyDwWACtohETJgIzCgTic/xXPORRF0apcwEjHhIS2i7FkbY5Zfu7dingc6CJnSRoJT2FAf4b+XDhAM7YLoD/Ov7Ac2QjLakSiN5AOKlJ5IwEQQp44H4oc2qveEEhZfqXP2kBjA5ewwB+uFsUWAF/PXBPBm4ciawpytR/ysK8AEjHkOOMJo9CbN6zBaBUHFBwn9LleOO1IDRieg9t4cqB60hDyB/yRi+YX0KYrQi882v95gJp/Jd4Fj4o07MHvBECek8fwb38mIrynQYhkCSCJ1sPINIWTIXgOGP2kC+mdNbzR0DrOtr0aeR7KSAW3PFxLCPWPceDtPxi2igTpef0R6A4v4DvmfgiqMnHgLEh+BeF1oMe7tyx0155+SVrIxsXAUTAl69YYeUHDwlpWKnCHmbJ11e+li21xi8+b81kq+K0sKm5fN9+q8ZOMlGDQETiscm8cqdVcXCpxHeFb/6C+Va3Vg1r0IDDk0/ZFr68vXOPvSuNXl02UKTPO5sg26hA0CLVfYNLBCWXHaf8uojv7stYtVpyKhr5/DHfNQtaDW3Grqc6HHuEoyE6AfDiVKKNKBMO+b5S5ePTqZMnvW27d+8WfmkrkUSjRVq5ZvTJdXn9wRtHy8OTTXL6duzZ43uMocLLUhmnhH+lbPyXXnzB33xlLpaXVPlEq4hxfrj2U9uw1Fq/bj3xPe0BAvCz74HZEzb045Pg2R89etQ2bN7iBywXzNhQH5SEC7buFc08K2fIsUOPEcptWPFF2sWOSRtzFFaDF57TqBAcK2V3RYOTRicLW1f5JFZDPx2HM9r8NSsB/OSNcLZeVq8Ih/GxdbJmnbrpnH7NwKwSUG3f3rLkqZ88bk8+9ZSt27jZKwHjaJzm8qw7d+ogo7m2MxqBYA8D36D1Y/epKEiUJ3idLfz0aphDzRF2GovtdJzEzftRUdDw4tGmvu9TtOHN8xl5NoMwJ0yZzF8ydDNZ3aFjJ2vXoaPzk3JlDzkemERkoCQIKLMSNFKMo3ExWaAzDHsMqWesaeOGduklQ+2yy8dYK3m9PGeOctnSxfbHl1+23WVlyifzBxwqjzcJ2GBPh/POoeuyXbv8zQ7mQalToCXU3YVK/zHHfE+GbrwZiFOHDft8EWy2NTa0Dp07WrNmLVwwjsiBKvMNN2UuSPxDGfB9ZToL54PRwWAePK0vwe3fp7fddOvt1rJVK0rxb7bNnTXdfvf007Zy5WrX7vABgeJgu717y90ZYrTz+WTFP/zgA/b3X/i89erb3/lBWzDVOXnKFFu2arXzAdOlorzc32I4dOhAeioR3A6KicNFKAe64QEC3bZ1Gxt/03i75/33W5MmYd8tym7p4gV+ztrusr3BdBMdHJw38pIhdtno0XJwuzreYnDBffInjwXB3ZA/9I4AROH0v4rCLIcYKlkMNMu7brfTWGGaZNTIYfaxj3zURkk4mG3weV7lhUhPybXw7dtXbq+99Ad7/Mmf2fLVa91epsFrqmEvF46Pf/xjNm7CLV6xSFNpCLTTywvA66TixEzAhV9CWZe9xWguZ34AGpNG56uOXukUnGaVD+G8MMrMy+zpU+3JX/xSHvpsF7bAtzz/0koqMPQFbB4lPsEqOi8HYFx3zVX++vzAi4f4PgGOX31Vox2vnK9atyGYFCofm/Oi/v3s+9/5lg0dOlRx4YOAPKtdp56PHvHdsf379tofn3/GvvWDH/kmJeZwnQ8qN1ATgCv4QZs+9MD99nkJbu9+F3lagA56/Gj4phwampU69io88+wz9vwfXrat6Zlisc5pzUMJ+kN+piE/8L677Av//C/WSkIMUB4b28FNByGtqzrVJZ7phuYuBWqtUJnK4NXJXZKiWioLIC8JNIbSeDraF+EQY3mbIZwbFs7gat6qjTVt2cqat1DQdTPFNdMzpsDC7q+AAwYLhffehg0bWxOlIa3jIE/mOh/Xypq2SMvJxqusppSX3nMmGbuROCsrK7QAIwParHlLzirL48jhTetCGnZf+RItLEmDc9NHAjoZppAu9cs5Xf6rGOrnHVCBX5aSmzRr5nTyJkCzli29U3netLNE/sPTxtJazahDWqemzVv5lFMUWsDRS+DPSNgTKQEiODIUZI43DZWgSByoX0Nvw7ah7cQ3511dhvxQF9o7tplDpXvVPVUaEVCAvFncuGmLHF9pF9qQKbGqhBbAtKwSAl+pZGBuvroXAMJPT6QXhXuPUHT4jRAFNkKuLKdBl1k6I470Nxu8rKI4gsfHMrOhAHEGitMpFOT3JOD1K4Wz8MUrkKZI81YCR8ufeJvyg0wp6sCTAPly+Yl0FILTG9MIuMpjKIQY779VJcoUgonj/5RWuloxQT5ynTHzLwslyAxo+ZOGQPfZAcvZCyoFEMFwzbBPwB716bOinlMATkSeDq8EmuZseQTYquCOrz5THkMJMxM+s+Ca4v8t8M7s9VLwyuYB5ot0H+Ij/whoT0/p/FEqbyiBUIQZGG64jnl4pTzwgHt/5vdcp4mrgGDbs5JFYSG1dw4BtMNThnGC4/a4yt5/KXCNJ1zQAt2RvlIBACN0BHv4vw+pjfu4PSUbl7NmcTooAGHjCEhOGGc3GAY8VT7GsuDBQ/7GJ0RHRhQDzk/9enXsitGX2Wc+8xlf+qxTL79qUgyHDx6wt9/4s/3kySdt2fIV/io1zMAOHTNqpD34oQ/b5Vdek6a+MDhy6KCtWrXKFi1dYocPY6chVInMj/rWr3dP6z9gkK90EY+ttWnTRps+a5avonla1ZNl4natWtrlY8Za6zbBRuNcsGmTJ9oPH33Mpk6d4d/0jfzghHY+K9WEIS83DytbvqLC9z1H0UB4sHHHj7vBPv/3n7PBlwxX+pp+xNTEN1+3X/3y57Z6zVoXDnCz0X3woMH2b1/7d6c7wv79FfbOvLl+FBNL1pg7x2RzL1k4396ePNU35CPIUXjZV9uYGRXs+xrBweNr8h/60Ifs47K123Xo5HgRPN74WLx4iW3cstXzYrpxUPMy8XPdurV2UuW5HJNedIKLfS0+Y6E4FBCzSJ27dLExY6/01+1ZYcQEadOqhQ0fPtydb1b1zhd8iSYChaR8VwOesU5CdtOEG322wDfLKPGadets4uQptnnTZnv3NNMdaYYiIJpKekOqAmJ7+qQ0cEr4gIsvsfvue79t3bbVZxUQrlqqXI+ePa1r915pygsHvnXw+qsv22NP/cz27NunjhnW7tu2bmnvu/VmX6+HmdDKxo535sy2b/7Hf/iufTQWdHCa4AC+T9apU05wI+TsOAHaCrOINzw4Mn/E0EvklDZQIt7QqG0vv/ya/emNN7zRcvwJGYMdmoo0+YcMHaZ2OOVnVtD4PvWoZ506dbZ27Tp4uggI0q9+8XP705sT7YAENh7V6qMCQkI9uAaPyuSsCk4e79evn9WREFNHFl5GjbnCWsjejICjunj+PHvs8Z/YxBmzPS8zOtDTsV1b4RhqgwYPFn5e42dUlgaWsFNedPSZYly9br09+8IfbNK0GS4cztPaNW1g3z72d3/3WWsm+x67/byBb0B849+/mvTqUfnssAk3jktWLl2SHD/KGWEn/JyqP73yUnLFZSP9W1mkj8ufxYFnDerXS2689srkz6/8UTjOvSwoM8GXe48dOxo2p6fhJGdJ6dl7hbWrViSf++tPJg0b1E/U8F5H6te8aePkoQ/cm8ybNd3PPgP2l5cnP/red5KO7dt7GtLGpchunQs/Qs2ZWW+89kpyy80TkiZNGueWhql/r57dkm//538ku3du9w3T1EuaKPmXL37R8cZ0/LKx/u7bb0lmTZ8iOsJyN0Cd4Tk88I3XaYi4srBo4YJk3A3XJ3Xr1s3RHTffcy4ZH6T2dqnOd8ZqJsMvHuDfcyvbvUv4jocXAtTO0oQpxgCctfazx3+UjGTJV7QSoJkyBvTplfzkh99LeP2LzfH5Nsu3H5vdgTfeeD1p1yF82DvyiSX7Af37Jo/94HvJru3bPN35QnV6B4EeUAx4r3x1kAMh2EzM8EMIKqZy+spwPmnyoMr4kEKZzAvH4GdJ/TdsI1dqpUhRHJqDEBNg/jAn6558ETAEFqPhe1++QuQ4UtAlJheaho3ibB6hXmgfTI6YhixqgxAU5QsamZGJOsNveOAbr9MQcWUBepm7Bml8AjYvJAvpLWYDCxpsUmdBwF8IUDv7DEkGKAfZiPY3uCN+SIAWdQgf5vNtlm8/NrsDnA2GZQyQnzqD0PnvfL0wH0ajptQ5oYgRAAh9MzUMSYFrKkG5FE6acB8qVghhMYOpnkD4/3+Ab3SxAuR1VIh15ddDpjloUPbS+h5iQT5N6Fh0ogjY3/5WBemVJge6hCeYIz7Bn0YDxAE0lTut4ltoRJUrOmO5FwqUz5bDkD+lOQ3+3P8C4TllQgvtezagvtGsAfIdnfYv0eRVgScOwpnNDwb+ZSk8H5Dghtc1ImEFoKhiRtLD2KfKydHx1RLsUd/4UYBD16KM75lt2rjOli9aYGtWLLXlSxbZmpXLfOUlepwAjORDGXzTa/mShbZy6WIPq5ctsZ3btxaeSC7grVsm6Vfp+Qqli4H71cuX5vKvW73CVq9abnvL9mpkKezV1Bma3etOAfsUxwqNmQXSckAc3wXbsn6tryatXrlU9PJtsCPwXzXO1p+G0v8ivqLliIF/8C2EOsb20vXrVjv9q0T/iqWLVNZq/zINsy3nAugOq3xgd4kIUFi8IGhkFAptn52GZEaBb/Q6L5cF/i1fvNA4ER7hYm8yq4PQTNuDiKML1q1e6W1KvpXKt2r5khz/ZWraxrWrbZscXhw2VlWjzHB4dIM6df1MNmi/EGAx2BuliL8OxHm9Ms9atWptw+QFnlYlebOVTeR4uuxJ4JtXrIMjsOSlZ/Hq8ssvv2rz5y3QMFnDTmgYZh/CddeNs1FXXOFOEYBjsFae/5t/ftXWrl0nDS3GSFD4oNzAQQN9VoJlyAh4upMnTpRnu1SaI3x3DObWrF7TG8XjlI7RhC92r1y5xgWgoHPpEo8fZy12XPLSOfG0IyAM4OGMMT7QvGjeHPPPeIoH7CnexLo/eyPIksoMP65JXK0QAj42z1899vIwitFh9IgOzN7UF194wSZPnuwdiU7WvkMHu/Kqa2zoyEt9ceasAP3Kl61eHmIkdARg9cvrnknPMQIT33zDpk2dHJ7Jsmdvxi7VsV7d+jZ82CUaddK0cmKxGGfPmefnpqH8GH29Q0ho8kopOJV7y/dZq+bNrGuHdhLe2nYmOe0HcfeS492tZy9fcLgQ4EtKqpYoyNcpB95g/i8PXbp3t3vuvc/PP2AfAfZRhbz2WarAn6dMc8HFJnLhEfG8urxt+27vbQDTIJxvwBRb/4v65wRXToctU+/+/XMv2OJlK7xDoIVhwlVjLrPOnbvkBVe0rl+zxv740ks2ZfosZ1IQvJAeRmG3x1Zk2MZ2pYrQFYGaOaOJS9OigbBDCxZE/FE134D92htv5Z6RJZhKDPnchyGYcsjCfaAr4AZGjRrtr9TzpUYHCcdGaaO3Jr5tr7w+0TuA8+70GevZtYvPLvQfNPjcgkuhhPMAFRloc5szTxub1N+cOMV+/dvfuEbkCcqHDfcsSd88fryPDhTEd9NmzJxl02bNsdcnTXVeAPBGLaB8CC6RMknUCVs0bWpjLr/U5EBa82bN7cTJE760zQf4+g3g5YNGnv98oTo9H1uHhi0Gb4S0USKgLfv2v8iuHX+T3Xjz7Xb9+Jvtqmuvt169e7m9JxkRpBn048cUiUje7SKw9xVNXbGvwk8YjMBEOwfTEXAyjikNgU09vEJERXMgfshjdUECJ3i4J/0R/R45ctSOet5Q5nFpc9b4ix0u6udffUH7pc/eFR28PVDKOUNjHz9xUuWoPAVw+4eVnUd5JoUGT/nn8flnzFdecdW1dsNNt6XhFo1gI6yZGpaRK+A/4ddHZQ7xHlnWpKoKsJfhtTtRWfDbQhqU2Eck3+mWtjt0Mg99+Mghnz933ivwywuVnTp1sWtumGDjbrrVrp9wq5+uSF3IB//hRa69RLfzn3j9ho9Pn/H9Ctdcf6NdN+FmGyfZueaG8TZk2Ag/QTOV+/MGdo0U1KkYnO8ZoKfWlIrnI3es09NTGvihdHXSwgszMOwxjDCvR/CezvjE/9hNBR4P7vQjyKRF83hetl5mNCVAWmY9cBxCGl5PT8vJXqehOD+AbowOUgQueecqGxch0FeIlxBoTxNFKL5PgcUFvhTJ/g0P4iF7DLAZ3d5OywDcb9B1KdqLARoixejSqoFnSpt2tmg6kT/7iyMKHTyHv3w2lXfF6klx0d7QzvEDzCiwIJFtY3bCxWsCQB1wkpGbevUben5Oi2QGIpZ5IcC4CrXp7XsDhjV/c0BawjW4mILWJGRPsibALAK7/qNWYzjiGZrF97MKuA/D8BnhZ1I7MJo8xPGM5WC0BiZJtgzoyN6XCgDvj1FmsZBCD8MbUCpvNlC/GLhHW3m8NCdaXsiL+7LfwidmHDCdTp7gtfkw6kVeAF43NKN4Gw/QC0uyYXkVc4jREuXjU3IqG16IU47D6SBk6PPpPjQzZHlZYX8x+CgD/EDkqfMiHTXDR6FDZz8mZ5K8pIFX3nZ+HdqtGKizl522bxZgkZdPfgWuzwU1vvD5L3x5wYL5tmjRIttXUXgiee9evey666+z5n6+a9W9Hg+fV505FZttanx3q6G0SsP69f1U7Qb1+Y5WfQ9+wEVd2TZ8gVC23sEDB8I3xdausSVLltimTZu90ZvoGelY+m3ZsrloaO5D/ob162UTbrCFCxe4E4dTV5/yUvz+3TOV3cC/3VXfl639meKdFnmw3OPd8nbukIsH2bARI30/LnVEoLbI8Vu0cKGbDLyFHHHzfTH/vpsCeKkX5YUyQ1nQzKwLX8wZOXKkDRx8sfESZtQqWzZvsoUL3sl9e4zjl1auXO7fHttbXuFnm0FnHY1qzZo0Ud1buqPEae/wmBPZwbFxw3pfmuYbbcSvWLnC3lmw0Jd53Vt3eqAvfMOMetfXb716dTy+mbQnx5jSufhU0ybxdOWK5X4AM2ejNW4szVpP9ZH517BRA2vTpo1v7t66ZYvoXmerVqwQ3StyS8lejsrEBo7yE4Fr6nTRRf3s8jFX+ggD0BEpi6MQ+I4cn53l+2pbVAadhHllHOVSUK3cN5KH/bjrN27xxqNgtFY8kbxH774+/FYF7ENl2mTKlLdtuzxMej+VwVBnCHFNklaEXn5g/8HwNW/FwUx6tWsP3bdt3dratWntE9fEVVTst1179qhzhM85SVG7tj4kJ7BFs2bWs1sXXxwJYhE6nf6HodDLC8Mfjc8Q6m8dKxIN10zD9GVylkZefoV/ppN89PZVy5fZC88+7Sd8M7SD2zeo65o3jdE0sRxoCrMSoW7UhWedOnSyMVde5QfLMRxG+PlTT9rjj/7YatXG+QyDHfXGa+8g4WjarLGbB3j4bPQuV/3hHelCmVIg8NNrx6V+9d9HOf3269HNnT/e9IBuVzg4q6RTGu6xOddv2CR79rDaNZxcxBTBkaPHramG7w7t2khwGzl+tChH9+/dBx1sRAdrNdm1J5W3hn/HuH07dXrhwLzYvmu3f+94q+SATfnQjCy1a93K7r37DvvHf/mytW7T1nHzqajJE9+w3/3udz5zwTQkeVBWN1x3rd182x0W9gV78gKoSWM6VxxgBiEP7qWn11UBm5f7XTTIPUTmYhlKAPcw1agILnFUAoFeI6H98le+aosWL/F5QUrkxVE+dHfjjTfahHE3yvZr7EPpymVL7fkXXrQpK2b5Z+m98fSPV3luu3mC3XfffWFjMkKtxuG5E6zrXE2IisKVmhwIAzMiYZ9wc38G0IhMz9x3/4M+0+H4BE67BNdPfkEo0vTMn3o9wa0Cwc0zPgLIfmO+W5EFpo5mz1/o87jghDdo8MtHj7Jbbr3FP9lfS1qL4znfnjjR1/c3btzsQpPbGioIgpsr1H2MQYMG2t33vM9fU/dpSVLwtSJoVRraALuZ8xB+9Mgj9sZbE23/gcM+9RfQvGu33nST3XPvvdatW3cvgQ310PHcCy/Y8lVrHCdAB+2jTjJ03A024dbbfEUPe3bu3Lm2Z0+ZbffN5cEsdBANQSmGW4C5a0YPRgo+AMhCDryFH507trfLx17p5iCv/1QCNO43v/5vVX/nbEXRd87OBqqNtKTC6TRwnQ/Sgp5s2dKlyfChQ70MylQDokiTjh3aJ4/+6JHk0MEDno7vXs2ZPiX58Afel7Rq3tTTk5ZD8NSIycMPfTjZvmlDIi3quClTFfdQXLbHvVt0fwaCvahKIMEuwMO1hF6/KuP0qXwoUaanrQK++MV/ydVDDenXMjGSu++8LZk3c7qv+QM7t25JHvnet5KL+vX2dX34w8F8BCmTfEhxyMRIrrlybLJ82VLPn6cPeqAx0A1w0N2nPvpQ0rxp+oq74w/0PPTg/cnKpYtzdTlQUZ489egPkuGDB+TbSoF8vJ7+5CPfT45mDgecMW1KMmHcdUnDhvVTWQr7QqRxk8/99aeSPbvzr9pv37I5+c9/+9ekbatWnoa6UU9eT7//7juS6ZPfFs1VvJ6e6QD/fRAy10BoNw9c50PsbpxUwrAL0AsZYhiCfGVFmohvdgG8vkNPRtMFrcZMgn59iZo8CkoDDnBTJteE4rI9TnkK7tPZjVKgxinAwzVqlRGEyftcKFGmp60CoskFfq+3p2ckoj6MCoEgN22gl38pTn+p1T34TCCeusMfXUezJE8f8dAY6AZ8hS3Nl+NpKgnQxwga68JbGHGviPMkTQ8EHqHR80wMdUhvBFHhVgWkjauzLPIQEepDzasGp8CZky3tHIBRXVEuu2fPbitX2Fe2x99v2l++z98qLZdNuo+wt0zx+3x5N9zvMfVgK9u9020ZIJYLDQw/DGO7NZwerNjnePcqX+4MqUij+mVkpDpffjgSSMPYkUOHnI69e3Y5jdCGA1nMQ/LxBSBopCxopF7795X7L/RSP/DsLxeOo0fcxDgfcDo0zPJxDmgA/zHdHz1y0J8Xc5u2Q93kQHVzQVU9s92AJNjv2J4xwDfKw5bkBHlW4crl9FSI/4cP7g/z1BmQLvWZCvbfkhcczIbAD84h5o3gA/BANuguOYWHDhwMz9P8EaCtUkWEI4hceHA2ucKYY24cfwM4LTqggXpwjVleFaDKcj0vhmxh2GBZYPmUw9EWvjPXbUCIp5ex+ACxJ04ccybCbrQh2hMhPSXhgyiMeDxR9sjSIJRFaVSXDdBzZ8+yU7KTWdNnSobXsbds3iZnQ7YOwgoR0CmN5L3bY/L0btu6xebMmGbb3DM9pfLYNN3QevXp40unzZu3zNVvvzrH/Dmz/CvjR49gEyaucXASaGwP6fQOOFg1vAxHLn2LtiqgnuvXrrYlCxaInq3hoOWa4WMdSxcu9DSx4xHgudQOsZCQPk+PdpXwxjQEcDMqtW7a1G1hr4viYAGLLyxJz1X9mW3BnmW25JJhI/xD4uzWArAZ28pB6t6tm+0/dMQ1q4wj+RTBy3/pDy/66laIk5+xapUdOCRbWIVEzQwtjJq0QRYC+dQrrZ/fxRbiaV4acQw57byb6GDPMqMOvK5bu5a169DBZx+8fiWgJglDb6NHpV5x+tCLKMq4fNkSGfb/ZbPnvSMhlWBQEaWhUCBoJHKmjeJMwRmKc3Ph8/6HDh/2ivMswuGDh/yAvKkzZjoNPKMTsDLDUfEA9OmBJaeZd2Q+Ml8eMG/+fPvGd7/nr7m7xy0acACHDb3YZynGXn2dLwAAfMX9Zz/9qeoy36fanNEEaKYelENQWhqqe/du9q32Hc4puJTz1uuv269/8xvbrNEDPM4LhcPShggk4LgV8PhdA6qekR+s4DGyUX9PQ7wC2rFjx4726U9+wnr17StaGZoT27hhgz397LP2q1//JrSb+MKzjh072L137bHb777HOnft5rgx1e7/4Id9/wffeqO+0LBty2b7g4SWDfdhGooyOTrgpPhzXOnUcYhN6WGlDtnxRCkgR+++Gzp7rAt/ka7gpHuUA18gYiWuZ/8BftwBPKK+OHl8961zl/x30ipBeVnqnJXYSH7TjZWds9dfezkZNfwS/5Axad5rCB82Ltx8ThDxldJCV3zu9ClU0/VHP/JQsmPrJne6Ijz1858lzdOzqGKQ1kpGDhuS/OanP0kOph+hBqZMmphcOXpkUvs869KxXZtk4sQ309xVA5vSv/Iv/5R0aBucjmzI1oWgUcQ3uN91283JzKmTchvad+/Ylvzo+99JBvTvk0vHLzgGDRigtFOSMzhy7vC+m2gETG64/jq1S0jjQXLWsWP75Iv/8Llk7coVjjcL8O20cEhYvNw1SnPn7bfl86dBKiEnFwSuiR8ox/HJH/1XwUeoZ8qZHn/DNTnnLKZt16ZV8nd//Ylk9+6daco8SMj9nDgcU+hwHni9qoawkVy92LXT+YB6hQ+nGP66VkXOGhjyS8W7fVQCVNFKaYuHoxygxYQnDEgB0PzQRx5wYV6gPdht5k5dmi40CZ+Yr+V1YfikLA79YEjPlg8eqA17eqvQAFlQmdDguKX1snU6a10yuNU2rr2czmJQJTiRvLqGWvIRUaMW3wsLrzoRE8v0uosOTJVioC7svoOHvrGINklpyNJMXaKJUAAlaFMfkInGiwlpROS4pw2jTjGgaXEYMR2gwzfbl0iXheoM4QwTBTr8LECy80yag9AIhaEqKJX2rKHUUKV4XXhnJA3XxeDp9Nz7axVMypehdGnc2dmZggsc5ep/KlhZiHgZTuOQSvA8EdJb6hefR+XCdbHDhWkRHKhgllSCNG9VAB3SdG7mAJF3MWRYnIdSzFDaIFOxbjkJdhyO6y8A1XkzoVYd9p+W6JHqZWGKIo0QhBWkKrRGCQhk6i+VUIWKBa0QiFdQZUNaMTFXUYSB+MAQ3LJDsotYNl2zaqWtXb3CtmxY599FQ1s4A6MAqRFYRt6ze49tWL/WNiqsW7PKdu3a4fsVvNhKjYCgpHQID9xhHyn1j4CQMOPBd9bWr11lq1YstQ1yytavXWMVrDSp7GK0yBRxoW6hUfm2CDSH7ZQhh08Fqm3Q8tQhCFAQKmxf7NG1K5d5PShzq+4RZteakWUqCT+Aw6s3b9ooO3idnyO2dtUK2yOasyd+U27DRo1yDhxd1dsqpbFU58YBL9agjGwsffsUFzR7e6OJ37VDcvA2rlvnm++dDrXZtq2bfWbnQqFaBRPMP3ncnnjiCf8IdfQGcQJuuWmCfe+733WPNA5xb7/xJ/v61/7dZs6d70Z7jA/0B68X4JchqEGj+taE3WOu/klX3TXD7t1lPvWSMxmUnkpzcjgVR9DByRCCZ00enAHvwXpwUoxoL4+ZU7tZH0eIEKqtO3fZWr59K+0RXAklVxkNGzT05ck2bVq7gEAfBzcvWLLMdu7Y5Q4j9SaenVrspahTRzTrHu3D/uCL+vW1f/7yV2zw4EscL3m2bt5oU99+05YsXmIH5XAigGjy5atW26o1a9W5OCAwALh5Jb5pkybqBBJSxdG5mkhgbrjhevvIxz7pvIYOViAnv/Wm/fLnP7UlK1aqLFbO1C6nTlv9evVtUP++xmF0pIWHHPI8f+ky275tm52S00w8AWHs16u7Hz7diKVgdVSG/osvHmJXXHV1wQfGmWX5z29+w37/9O88zoVSxB9VO3MCOR8Nx+KlHjhRfD/tb/76r+zuD3zQHT5g9Yrl9rMnH7c3J02Ss630oICn6vQtWrawHl35hGxdrw904IRxtFavPv3Smanzg5o+DOaGBZeJHIRnWa0XLsMQkEakEPLmI0mDsPbt2cPuuusuG3xx+L4YwGffv/a1/7DlK1c40ylbGPyr5ffde69//4yXDImHeTSASPHeixCTevrUyfbaq6/6R998GVf/2EHGq/TXXnedL30ykQ4OhOu1l1+xP73xpmsrGAawp+LEyeABUwaAhmrVpJV96EMftNGXh5PR+Yo7Nh4N371HT08HsBEEzff25Ck2dep0nzLCVqax2CuAlo8AHTQ2ne3uO++wa2640YUceuiwrVu19kP9Ih2cQTFy9OX+reCDwkuHpWE3bVhvL734vE2bOcuOHDmW2u3yxlWH4+x2Ox32I0Rg6ZdOtHrteuele+2q/2Z1bk6AZ08txysBbDP88MMfsXE3jnecAHPXcmLtpZdetpXr1iuGUSSoBHDBwyx06tLVPvKJT9ktd94TzBmhqVunns2dN8/+81vfsiVLlroSQOawn3v37mHt2rW3tu3aGccvnTfsLduTfONrZ1vyXVYwq/Dmn19Lxo6+tOTr6bz2HK95xuvpE66/Opk28Q3xPe8lbli/Ibls5KVehpiYep/V/JtZv/jZU0p6do8S+PPLf0iuvXJMUj31WmPoLC/6W9/4WsFS4c6tm5J/+OynfWk1m9bpr1FIN/Fdu3RJXnzuWY3mpZduI30sdULHjeOuS+qprlncYRagsic+Ysig5Pnf/crzvxfYsW1L8ref+mjSpPh7a7ky83XxoHL5zplkNpdWgp1cfFGf5Mkf/8C/+3Y2gI+/+dmTyaWXDPZ8lBHrMqhv7+SpolmFqmDy5MlJ27ZtczQQwNWnZ3f/vh3fubsQQN15b64aQs+L4CWqdxeCYlOtmYcQxwQ+X4bMvu3AkMM+U4eIy5OHVROOHD0XsNPetYe0C4FXgQDsLt5czZbnX6VUWjQOGk0N6gEzJy43FgB0CAemQCmIWhFthy2KBnN80CKcAXcwuZwvMQiYwaH+aNr3AmhQtiJSFno11p1ys5o2AjRQz1hnn3XRPUM3S7nMOJwNaAv2WqsLpzFFkPLiXMCoFmdNKN+D7HfKZ+aD9xEvBKq7pyqi+Hde4Gn1o3+IHBU6owgGDH5xSIgDLdelsGZL49dx6IpfJuGPHj7ky5Z8hJlfNjFT8Twol+MOasTp8HiuFV+iUB/6zo/HTrfTITuTt4uhh2unSb8eLwHiVZfjx457p6hUpCLAIyPE6YvUo/roQFki6bB49AzLEb+XobKLZw+oQpyaAidYqHu8PjeQKrQAnfPIEb61XFhuCGmc6g5t0FgMsQNngXZiMYXOSfuBQ2rbHUHapjKkdT8i5Zby+pjygKNUmRFq/MM/fOHLixbMt4WLFllF0UbyPmwkv+5aX+GIvZkvay9dssh2y2tmabR+g/p+fBJfafTDL+rV9Y3TteWdYrP2793LLrtslHWUUc58KYDD8vbkybZLXj7b//gqIjjYiNxcjsvJ48dsq+xgPOYtsk8REp5HBwDgK+ArZbvtkVPCS3d1ZfCzBNquXRu7dPgw//5t1Cb7y8ttwfx3bP7CxbI7We3La6Zi5lNvVtratGpuJ1Xu5k0bbN3qVbItN9imjevDBnB58WzgXrt6pWy2xf4ln917yoJXn+JDI3LGawM5UKzU+cYiabh+fXvZ2CuusB59+ooOjkUyP+CYmYiF8+d6nTdShoLMONfm2NnRCWb/w8pVK2zNps3eCeo5/xtIa8lBFe3ewUGa0lFUvbTjVDdOYm/apJGdkID5jMP6dbZBNDDrsiG9pp5rRc9iycaK1avD6fLCQR0RqnZtW9tll460iwYNyfGab+Axy7OM4whEJ3zis2Hwf8as2f5uoHdcAe3AGWbNmzZxf4FvCfuGcqVn1qU+9arCYQuSVFy7FEpJPGvI11xzjbVq2do1YWCo8vNfwTW4gOkPnKOLLx4kB6CzhDY/JDUVodeNHWMdWjXzmQAYgYlQLq924dIltnD5Mt+vyish/I4cOsRuu/0O37EfgeXLq8de4a88M+yCg1fm28vIv2jAgJyn7BDICxcle30eEDiG4zcnTbUFy3Ae1YlFR/ieWHgFm5kA16a6Zopn+/Ydvi8iNiilNGjU0Pqp0/bu0d13uFHqyeMn7OIhF/vbyr6rKgWm09566w17Y+JEH5ppUHB37dTJbrnpJrvquuY+nAKcrzVi5GXq/Id93whpEYS9Fftt/pIltmvHLudHFI5ioMtC4+7yfTZx6gybrzpi1lBvb2/l83qofG6J26uOXyahDUN9nn+ki5yNwDkLr778R5vzzgKZaGE5GYW1z1+OPeblOH6lBTffVZsye64tXbPOF6uYNUHxjbv6Sht/823WS8qvFFRjyddPJP/pU7Y+cyI502E33Xijfec737IevfrkBIEhgE3OvJJOgwbiU+AyrRd2MyshHFDMRu+gLUNaBH7rxg12oKKC2vPf52SnTpliv3vuBVu1foM8UT77H2zYq8dcZp/+9Kf97dIIftT87l2+8ws6QAIj0G5t2rbz143iOvf6NSvtsUcescd/9gvju17YVxEC/YXmBY1eXRoEXvigqmegwtyIDOcCj4iYd0+d8Yl7niFw5OM7YXfdfpvdMn68H9QMYDO3aNXK2nbomNt+CC6+pPjE44/b71/4o++ZYJ4c7d27ezf7yIc+aB/40MOeD4An8J6DO/iYoa9+SfBWrl5jPxKOdyQwmDmF05QBCuqo54S4/4C5ifg4ZYnf+6UyQk9ucUL3mEeD+/e1z/z1p+zeBx/yUQGYO3um/ec3/sMmT5/pb/nCXxdU8YUDpn1ESAHctFGN2mH+GvoQXF67uvvm8faRj3/Cho0c5fysBGfbSF5qr8L/FBzcvz/5+U8eTQb26+Nlq2dqVKvmHvHVl1+avPzCM2nKC4e1q5Ynf/dXnwiH3lWaCeF7aZl7hTp8P8298dSLTn9LBWYO+Op5LQ/5PQV9enVP/ut7304OHqhIqSgNzFzMmjo5eeDeu32mJtad355dOiff/LevJLsz3zmrCpYtW5pMGD8uqV+v8Ovp1If6ZevoQfWjrc9WtxiCTJTYq9Cnd/LEj/4rOZKZVZiuuoy79uqkft3wzbYsjko05AK0hHTgpQ7n3EjuPUuiHobA9DftFcQT/m8Ab4eikaChALwqaXjP4HozvS6EXN3TwHyo118awIdhBbSC/7oqKgTIBUdeXwk8Ttrx9Bn/WPPZANzYcVFDApHngebKq29VQQnyHFdxHT2k8RmqzwJVpJIilOAVmCVeF40Yfh6dtDk8q4p3EXjGyBHT+T/d81sVqMyAmOEGe47r6LXGgv+vgJgIA+J5u05LSptPshfRAfOZFmKSn72nMbAyxHBaCOQtEK0c5JlGWaE87ktB5FU+bQjEl27aKHp5gDZeVuSAk0Azh6RwMJ4EFPwiVZrHKc61Rabq4MJ/YEbA8+Pxixdcc6hytiyvtdevuI5VBC+/KM7jsZMyRERQYdj2mA1urglYQsdMJLlKzdFeKnsWCp5zfa70shWT55/5nT3929/YOnmqEElFmaK44YZx9g//9I/WXs5VViP8TwA2K0unP3niCX+JEm8TZvBB5dGjLrMHHvygjRp7dZo6nB3GpvMVK5bLHpegiol4ojhnl142ygYMucRtbIC1/Cce+7E9+uTP7eDBQ64l0DZoBlbDeAWdXWE0GitBh44c85N2sLfghYN+0CYtWzSzBnK2fGpH/4+LT/sPsBx61Ffw6FDwsEu3jvaJj33MPvihh6y57FNvRMGcWTPs7bfe9OkhkeBQVrbXVq+V971lq4QWYanuPkbP7l3tA/fdZzfdcbcc2mAn+1FVSxbJH5gs5yzMAtHZdwnHpOkzfPYDLQ8OgHlm/06ZbP/aNVMHDHBh1G+8pzrpNVUGr9/pzxHZqgeo42E5W54gKI62bdrYiOGX2EUXDfDZD4R8y9atNnPOXNu4fmMl/nEVi8tBGg/wjDPZeH3+jlsm2Mc/+Vd26ajL3RYvhmoanhNOB1yyaKGVydOkHPo7fbdX7z7+mSeWAnME/A8BPZe3FxBG3vNnGdT3CEi4unbr7ucTdOjUOU1tJvvHfvrTJ325Fa3DajPr3716dJWwfNju//BHfFYDQHB/8uiPXHA54gkmo7XYNzBowEU2+rJLrb0cJl5zZ2qKcybenDjZj7z3DgtHVf0WLVrY++652wb07+9l4r1v2Ljeps2YbWvXrneniCEYoenWpZN/4uqDH5bgtkRwA/zwB9+3b379a2r4gBMPjw7RrVsXGzFsmHVUHWkoFm5aNm9pgy5mFqJfemYXMxDb7be/+IX9/Be/tD1793q7gIYxhjdImFcOC0TS4KKjafNmNuKSITZ82FA/sBCNH7Q7CoqqBVOEKkYzzWUAwRbQwZYsXernhG3atNXjfCTWP/Z0oGD4un6USOjgGKkT6acWwJ5WM53RUNAvceFPygYu9McFV+12xy3jg+COHlNScCE84RTswwcPJPv3lXs4oHCwosI/LqyeRZL/C/CuO4GHDx30t1AP7NvndByo2Od00MGy8MfnnkmuveqKRMImJyBv2Hdq3y75ty99MWEkibBudTiRvFGDBjnnjLQtmjZJHrjnzmTSG39KynfvSo4dOZps3rAu+c7XvpJ0bBeWJ0mLY8GbxSxJv/ryH5NTJ+DXwaRs187kD8/8Lhk/7vqCE8lZxu7do3vy3W99Mykv26Oa5eFLX/qS44WO+FYrS9G33nRj8tZrryQVZWXJoQMHvO687awOUtAG6oTJZz/50aR5s2aOB7pCuXnnKdJcS05m1+5dkn/++88mi9+Z6zyBn97GFYG3gc+B197+5eGX9uf59i2bkke//+1kGG/5pvWLZeDYOm/S+CwdOIUxnYdSDqJCznFMn8EXCW7ywPvuSmZMnnQW50zAWWD1pVX5gAeB6ZtGTZv4pP//tKbNg4Y8aULOpWJYbNy0qdNBgI5CUyUc2sYUDb2UISpHp36DvikEzIBKVdE9mp0dVI2bNfeFkMaNmyhO2q0osXil5ImflcbCi3/KU4FpPmxwtFXM4b/+p5gK0IZUMD76EEQxgd9QZkvDJk38jC7qzUhHfOU2QGOGqcjoOMKDyhD8BhaDWOjhKE9Ox/Q2bkKAxzGEtudba/w2inFKF/gf7O4sOE+EP5RfSEdxzUtRB6SKuvB5VYkzEMYDgaeFQTGcT+7/KSigozIgIgiy7yFOk1Ru3DzAYJ8tgEsxeHz4Q86Yn4UBt41ThpLXQ3qdeyDwRlNn80UU3YM/pg8QhLIkZXpQQLOyZDbX+fOSoDRuZpBet2ert4OnC3Q4cHE+IYWIP1el9wjkd76UCP6vII4M4acqyAnu/3chw2QFmOACmgGY4t6vbGCesOUQwBNnTzErdHGjEQLOOnncrofHTJznY6EhXRkEwHtGmp8FFWxeyiWQJzgmYnCRfRap9XLS6b8wyyCbWbjyQl8acLZ8uinFdPbkGiP03BdHMnRfCPgqoXgBf94bhgDOK/EZ3lcK4isONteU4Qf1iafY+bRnKajGF1wWzJ9ns2fNtrK95R6ZH3qjZxl6hMcp8IT7GIiPU0hRAADiGarckBPjQloekFaY+Z/i8AbWb9oe/gzPtYaGyl7dutpll11mPfv0jY/s5eefsUd+9IhNnTnH50spC0Ho0qmjffQjD9vffu7zuVOu9+zc7suQzz37vJWXl3ta5o1by2kaN/5Gu/m2261L1+4+7CLMM6ZOtkd//CM5I5tcm1IiWrhP3z722c9/wQYMCN8XY+aFtx6ee/ZZ8W+WnwnBcEl9mJrq0LmL9ejRMziJKhNcixa8Y6tXrfDN5IyqpGskk+PKq66y+x/4oC9lQwe4V69cYTNmzLAdO3fleMFZFfPnzbWly1f4ebSB9ynrdEHZgPNaeDp16mAP3nev3f/gB/0MOAChmPTWm/7tsoOHj3gcgJCOGTXaxoy9ws0UgL0RLz7zO3vsscds9vzFHkcdKRNIi8vR4Nfhxy+Igxb2f7Rq1cKX6ON+XPDE2YgwrRZOfWQGhKO4brnjTuvdN3wMuxiqHdhfkeBx/+hHaqhtO9Po/7fgylEj7PMSmPG33ZnGmL3y4nP2w0cesSkzZhUIbvcune1jH/2I/fXffs6/KAPg/e/avtXWSBD27dvn2pQv3GDL9R0wUJ58F2my/F4KOYj2zqwZfsZA2hbu1fONsz4S2kZpo9Ig7H7awHchNmywQ2pk9hTIkbQ/v/5ne/3NSbZj9x5PG6FPty5226032dBhw73hSMvbGbyJ0LNf/5wtLwfV/vDcM/ad73zXVq5Z53Z7BOoqpyi9ywtNZcGtZp3VkT94//vtAw88aN179vFncv7snz7/d/br3/7ODhw55nEASuYjH/6Q/fP/+Wfr3C19E+PwYXvx2d/bY4//2Ga9s0iIeSslP1CnxeVp8OuUjjQObdqyRVMbO3qUjb9xnMmx9A384JFD5r98YsFHRGXgxMs+Fw2yTlImHIpYEvB6v/G1ryY95X1SDp6he6QK/JYKvkQn75Hlwkrxufuz48mlzeBgU3e8JoiR7qVePeayRBpWdcrDi88+nVwz9nKfVfC88khVHff8v/bVfy1YhgQ0NCenT50Or0DnQjhbqxhw4iVQ/jymC2kre7h4/MTHtLzyzfXXv/ylpFun9qF+7m2HWY9hgy5Kfv3Tn6SzBaQ96bMpGkZTjAHU0ZJHvvft5KK+vRMJc245Ptb1XMHTyVPv3r1r8uUv/mOybvXKFHOSVFRUJJ/62ENJi6aNvc1pS/CrIyUPf/CBZPXypYEJAr5z9tSjj/h30XhOPUqVlw3FswfUO54dtjs9OyzylLoTIv/y/KjcLlmoHuwfdo2GnpIL6q3RZCgZeOZDRlF8LqTPzoaDcBYc+sN/H1L9IgfYS+FYUrdDiEm7fvz17p4BtAm2ob8CnQsMU5XNfIpC8/E8pgtpC+1VADqDQxfSUm/XmiIaUhKQKXh90vQ8lwB4WvL4+11eyTxQD8wDANojTyKeCLG2FwrCFP6BM23LCHkeBuC+KKoAeOQhTcOvB78OkZTD3DCb3oHIU+pOiPzL86Nyu2Shuq8pu81ZyBAgMg9HwkO6MnS2Xw+l4uJ9Ji73PI3H7ikJHp19FpiAF86wDx4CEHHyC/0MxQh5CMEhUu9ObSqOWVK8Ag6VB11HXO8Vwk6qUH6kLeLEjvSySaM4lq0pPzZwhNgBXGjTuAjFeGMoxpGDEvE5HPqFN77zS9fBicuXSOnM3iBIxXTQh/BpiukoDgC/Z87ggJZ+q+RCQZ5EZYGNgN3XoGEDa9yogX9QmVOqWR5tUvRLfCP9Eojzjy/HZ36t/DGPx2Xu0/Rc12tQz520yo0I+wrp5HTspk0aW9NYDr8N63vP3bptm82aOsWmvf2mLyNPnzTRV9qmT55o0ya+YVMmvp7Gv2XTpxCvoOtpbxPetHdm8wHqfWlJ7wFEbyPR0rxpU9HXKNCmwMngifi9fsNGOYCTbMpbouXtN2z29Mm2fvVKn1mI4K8FpQJTDAg0m+5Du9A+Da2BHJqsnR4BVjo/MywFJw4QG8k5ZZ3T38Hhp8XLL9Dwnpdd1YXRAUVR2CrQWMPnsb0dCbEt0usQ18hXwqC1YcOG59Sk5wvV+JbvU09wIvlPbT1fT6dniVi0U6eOHWzIkMFOAEMJ9XchUsC8KK5IMVD3kC/MHACBifLS5Vnyi1cNPqaTtu3YYStXrLJyOVA0Dr0Ueq4cPdI+89nP2oTb7nIcwIoli+ytN96wpcuWpb0YBpvtLNtrFfsPWHt5sF6+/oTztUJLoOnQEj5ME5/Wi6/CiErXfu3bdbAPPfywDRk2zIeuCwU02KQ3/2STJ02ynbv2uFZzOlTm1q1b7bCcuHZt21Koa2DeRhh56aV26x13+bI2tJbv3mUvPPes/Vje/IrV6TfaRCu4eTv3shHDrEULDqT2Wvry9MIlS2z3rt1eR+IxATp07GgP3nuPPfjBD1mPPv2cPvY7vPzi8zZz5gznFfmRbGYbbhx3o0245RZfpiaeV2lefOZp+/Gjj9mcBXLOBNBB+0NHn769rVuXLi7c1LMUMMK0bNXKrrrySrv2+nG+cPPfhWr79u51wX3iyaf8XIUouAjDlWNG29//3d/6XgHON5DiV1XCcxq/QDPGyyAfDqTjTFaGH3/NHdEgj/7XrC2BYPhAOJWOz9a//eab9kt5uqvXbfBeHwX3qlRwx2cEl11gnPiI9x1wSwvL83/2D3+07/3wh2p4efMuMEhMIMtJzJDMo/gkJcvNiO5du9m//9tX7Nbbb7f68vjfCxw8sF9auyIcdiHE0MEo8Z/f+rY98uijPiXEKEIdOYH7xnHXi9efs4uHj/DOwib5F+TNP/rY47Zyzdqc4NIufXv3sq/+6xdtwIDBzl8OFFmxYoV9V/WeN2++f2LKd9RJcDsyq3Dv++z+BxHcdDpRlT0gfsM7hDi0o9ro9LvWlkP92vD1dGeOC+4Lz/zOHnXBDdNh1IUO1LdXd7v//ffazbfd6bMudBiHyOOAwjtnvXphg//ZTmC8IDjrRvLx6evpeMDy8lg3lkZyLzpcn0fI5csHVTDgS0/KxoPdVybN/+MfJgP79/WyoUEN5fRce8Wo5JUXnhV/K0OWFuDnv/xF0qZ9O1/zFnuCt3y2oDLkGOXuKbtL587Jb4Qnu9/hPYHqFeoZTvcGvvQv6YnkKW1ca4hO7rh1QjJr2uTKh97149C7sB8gtsvAAQOSOTOnCX8e76IFC5Ibx92Q20heaVZhzSpPlwV1mqL2OeU0Z4H9EuHr6YOcBgK4nY6iQ+/yeApDbO+/JJzD4JDGZDjVsM2Qik0TDPXw2sd5hVy+fMAMcHzgUUD1eRn0RFhyAZClBYi43S7jV/dnC2oED1xHHBKo1MPNvLf2XoB6pXTw61Hpb442/bpHXV1B2jNqIz81PL0uxRJ3qBUivji3WimtUHhZ8LkIwF/YPti2ocwI3v6UVQKkSKNSdcjjKQzUM9L5lwK1kYhXiEzKggwCDSMyCTScRWBoY/jYsW2Lbdu0wcOOzZts57atPsm/fctG275JYfNG27F1s8fxsegdWzZ5HOl36Z4VqkIIE+aRDn64CoGbEB9Bnc4OHzwg3JsdL6F89w5fWYLeuFTrswhVhPwMAuWGsgCGQU4k3yacXif97lRdWIGjLl431YdAXXj/K9JBnu2KJz+fzioWpFAesyGBNn6Z3eArkpzntWPrFtutcvg9KLsV04U8MX0AbGNXeuFW4HY0/EvrAsBLKWXx6aDtFo1lO4WfdlAbSaM73dC6XW0S67h7x3aFrUqn+qR1xKyI5li2GXzjjcrMArxHPsABTmSBNi/blT+FPgusENJmlO3pFaCBhY+s3BWDf3UnCG8gKgaHLJUpYFcumv+OrVi+1N9a9R5Lj5ZHS+rTpznxj65ITw7aBAIQBoSNX+ydUWOusP4DBvobsAHInWd6HhQRiYug9sIG9OXTlStCgyqOTeecs4U330R2owpU4jQfKPSTa2pd4BBWHDzkh4dAG0VQFMfuz5k7x+3UWrVrm8ZT1xo1ZcedOqX6qTw6OxjRKGgT6iWzxcuEn+zvHTxkqPXo3Uf2bN7Ba9WqpXWV0+s2rniEYmBK8ujxY/4B6lWrVxtHf4YD/db5N9N6yPmJ9HPAddeuXdxDDzEBKDNsQg/3UZ54HXzFqlVW90+vWKt5rbxD44TW5lhS0couOzoGcoDGDeeqMU0X3srAl1ixcpXtPyRbPcVJ1bkMbY8mz9OBXY98rFq53F+sBS+dDudshBxQPv/EQSQA+5c3b1xvc+fMtr2sUooeAjMVgwdfbP0GDbJmzVt62mKQ0UTvTdtYEH8jFN9z0t5zv3/aZsyZ669Sx+E0aG1eq043RsjS8g6hykWCQIUGYeqGSrVp09bad+rk+Xl7QPZQrpdRLukx2CqB4tauWmkvPv+8zZg9W8wNG1oog6P7B/brI697uAsMswQxD/SQJk1sGzdvtjcnTrL1GzfZ6ZOsndP4NfxtholTptqs2XNDk6R5EV7ZaqGh/UFoPP11ByQ4oWHGonu3Tnaf6sMX0Gs1aeY4gMtGjrC/++ynU40ZZmf4xteSZUvtxVf/5Lue0GRsPGF68aL+fa1/v37WoH6DwFel7yCe4ehkAWyxHT1QoCI4w2L+4qW2Zt16n0WJ9a9JuyiNz6aQUXHUkQC4hoX5MsP5Hu/+AweVOjxz0gWRB+mPww5p8T/+8QWbNn2GnzYEYYxsHdq39X0PLK83adbc07K0Pl9C+9OfPmVbt+3wt1DYaMNU3003jvOtlU2btcjRVAAX+rmot17/ky/B8nkinBrSxlBp83CJOJGQNGrYMPnkQw8ma1cuT7EmCWeY/eSR7ycD+vb2skkroSjpnOE+xI3kdeqmS741wnllXTp2SL74T19Itm/bmqj3J3v37vVQrqDRIlzrl/tXX/pjcuXlo5L6deoULGWyQRrHplR98gE+hTdXPaTxLFGrMzs/v/3N/0jK9+wWvXmHR9o80OGhLCnT8zdefTm5947bwnls0KG6qK2SHl07J1/54j8kq9UG+/bty9F98MCBShvrFy+Uc3bjDUk9d87y7UJd/K3l3DJsaN9zB95eDtehjuEtZgL8po0uliP900d/WHQi+dTkpnH5z0XFtB3atk7+/m+KPhe1dXPy7a99JWnfto3XF9z0p4b16iUPvu+uZPqUSZXqGaE6QwK2B8PD+QAahS17rHKF3o2WCRoVLZIL2Thde9A1tVAXz9iXARyvhqVsXB7SfClge4dv3Cq9bLhQzruOH6gv7dSsRQtroh7L6zYEDhNp1jy91i/3vG+G5slC7NtoIfnBgWZ+s3XweGgO9S+oJ5pX1yFv5bpwnoLT4aGlhtDWYYoojkxCGnAEWjjNhVMMmzVrlqG7sWv/LJCH7YCeL6ugUjqoT6CPtOm132foL4iXHZ65LyUfsa5ZwGTi1R1OjaQt43OuQ9vm04NXgpmmS+lStwt0wFxMmNKgVqvqURUgrjA8+rDit9yHIYZfTAYP2bgYdB/UfsibBb/Xn0I2pOCR2SfgyXvroZwggPxymFpxwxaDmiIwp5gQgVMIzjQU1CPep3Fce8g8D2nyHv/ZIN+gqWA4rnw+BCY6RmcD3mJhhsKrU8TEYvoj7fE+1qeqdLGOEfLoq7k5Rl0j0DH5QiTtEOQkPOOXtByXFSHch2+oAbz0GXnv/HPDqTRUJ3P8AFslAEFRPPSXTHsBAGEsQATDPgDX7NnU0JLG5IFKxJf3ABiHHehebQEbZUOrx+/ZXeZnX22R4c/p2xvXrbHd8mpxxiLAIqacvEJAUWOXArQHGiLOShD4KjnOR75ZA4CWuHOhdV54ncOkfiwDCK96gyGPhftDhw64U7N+9Spbv2aVbVq/1rZsWG9+Hq8ELRJTTFMWwJOtByFqv6yQAtyyVzamg07gmJyrHTt2is8bnB7evOb83pOnTuTKjnxgT8k+OW60B+n8jLJ1a61sz17nXwEog3cYhar4V+Mf//Efv7xo4QJbsGCBVfhZVEh78AT79ultN467wZpqiIrCytetp0+fattEMMR4L4c4ryx5U2LTUBzH8FC3bh0bdvHFdumoUX6gHoCHyWFpc+bOs91lHIcfhk4EtnvXzkp7mZ9aDYAWBsxT2s1bt9EKwo0oqsLStsdPHLMNatSZ06fb9KlTbcE78/yjc5x2jvkQOwzLr5MnvS3HYLvXl7qDxDGBL/x4IIovmnfs3Mk6d+psbVq38hkCvH60dxC2IGTgYaM4b9YOuXiIHwsVqKsM0M0HBXdxnNThw04jr31zInqfPn3sctW734BBudkXHJy5qtczv/2NTXzzTZs5Y5rNmD7NZ0FWrVvnX6P3ITatS454KHASAq841bxtm9b+OSmWn1u3bmMtmzd3wfWD6VwOAn3ML7eUidKlSxdrq7RtlLap+MjXzQ8d2G/Lly626dOm2gyFOXPn2tp1G+yAnDlMiSAXQTFh2iHgc2bNDGn1y5L9VskSb38gS2wB4O1hTn8fNnyk+B2WwIuhJsIRbRX99xDBhymFbCSNhL3kUQXpYUhBUgcWh4rjsON47Tn2XICymAGIB0uQh2yUBzMpMwJX0SbzNOkjRgfe/V+yZJmtXLFSz5jHPONf4x42dKMaqI2179jJajZMp6eUMccS4QCP33s9UqSCSEOzVi3sH7/wBRtzxRV+gBudbaE6xe+ff8Hm88l9zlZI8XjwvOeGLj162sMf/bjdesedTi80kI/zuFq3DjZwBDnT9vbbb9nTL/zBKqTBoqkET9HQcSoyku86K60kcSgOPj3bpUM7u/OuO+3Kq69WZw4Cy2mJP3jkEXv9zbesJl/ZEF7MFDYHTRg/zj780MM+IwRsWLfa3nj9dZs4aYpNmz1HpQTTAjzY2hxA6KWrTJQeZ6KtXL3W1q3fGDSpE8jeEMmC/Cxmc2ITu0wKDyFXkSIIarT0M49POPQ2A1VpjgsBMEJUnPoCoE/kpneFQDxCWgiio0RPBC/zshXq8RyYwfH2+6SF2IRy5MjhwIwIVTClEjjBnPHA6zt9rW+//nbxkKH+HYU+GpWaSLsiQFl054nZgdMJOTIfnHwFcogCv/36X2QtWrYqsNdxpA+oLoyO1A3Ntn//QT9unxMvsx2uFITH1VRmHdeglwwdZoOHXGJD9DuQedN0qioC+NC+bdu283SDVGfCQI0COJiYJ/sPHvLpMjbs8CpQ3sTJQ3DaTth+jS6kIz35jnIOhNIWN6XnL8KRBd9ITq86S5oCoOExEf7SgFajchLnNKYY8vHU0ffhKn24KwRsYoY35pgZfuIiQTD4A8AYVqyyDD43Cxg9CtOz+eUMc9eVGBjufd9wCRrfK6C9atRkCRe7P8wtY+sTX2pIjZAnjwuF3H0+j/O/RNt6jiLUtBf/yM53L7DTc/wuQQa00QFiOg9qo7jyVsA+LzBcVgXVyYA1cM6UKTi555f0rFAJhROShpKQ5QbpwhTK+QA5Y4gQtreos6gj0hkxiUKnDMHj0oBwwqKYLoJPmaWf/ywMgTDKUzv+RcG9f/2jhDhtRKchVKYjDdCfXtN++vFfx1JQH0bBykx13sFsQgqxzMqpS0OVfcrpztPu9SC4Cqsauzpq6K2BvEIgW3FmT68eXiL5eQOMp7eFclNQrw0bS0q1NIVl6RAGp7s4vjSQyns25UUO6r5O3XrWWPZjw4YNfAN1QwU+VUXgJb14zUpOI93jcNWqGZYrAWioU6e+NW7AJvYGno7A2Vc4I3xse74c3/mygxcumG+8Tc2vO8OckK54fjn+iu+UsR82Ag14QEMqJ3QvJO28ubZMThBframQ6YODi73JhvBIZwM5XA2chgwt6W+eNv3Wr4u82LbtO0TPQlvER8VFF19BOnCQ/bl5gF0I0k45j4uVjtPJoX/58uX+VjizDVVL5bmB13T4tlqevnr6VRA/WW4X8pCwCKqxksHBzj/72c9sw6YtLkyodaZ5brpxnH/ip1efvq7agTdff83+/atfsXkLFvv00rnmS4N2yAsXb3yyQ/7h+99vf/23f2dde/b2eJyOF3//W/vBj35sS1eu8dOp4x7Uqy6/1P7mM2wkj2/5Jvb807/z19NnzVsgjZI5XM2B61AmvZi9osOHDrFPffLjduNNt+VevV67apU9+/SvbbGcOU5PdFMixeNOkvfnMLtBPXt07WoPf+JT1qdvmN1g38I64Xj11T/awoWLZEOH77ZR8u4yNary+VuqwsH5Wug4fnFEfPoJU0fFNZaNO+byUXbfBx7wT0YRyT7ZubOm23PPPWdrNmz0PQp0BuxEvlDfslkTq5c5cQdB5BL6vQ6R5dzrx9uAON3g3XNCOMtUdF4UBpr88NHDtnH9Bivbvcc7ZQC+P1fb2nXs4LMpLNgwItH2ZXvKbOeOHT4LQZFnh5ggEAZP4RWn9vTo1tVat2rp06HY8LzOf/WVV9k1N4yzbj175XJmIfcGBBvJs4ILY28ef6N9S4IbPuIWBPStN/5kX/u3r9rseQsrCa7zKzIsheI4GquRetP999xpf/v3X7Cefft7fF5wH5XgrvaN5D5FJQRjR4+0z372b+2m28NGctD98dmn/fX06XPesYSpqJRz4Sd6rVFwa9vQIYPtrz7xcRf+KLjMDPAlSr4gnhsiUy6R35ucez2CJzC0VZs2riFiGgSM13zAwWogE+oIxpOPPWbPvfiC7VLjorGoB8j4ARfDI/mhj9d8Jtx4g33uc39vAwdf4jb5Xmm4P7zwnD36+OPyxtc538DB6z39+/e1r/7rv9oAOVMIMzhykNKfhyC4VIIa4mAeOLDfvv+979qfX3/DT2EUEvfSoROask4z4DS7XARhZgbIr5WWNuI3C6QvivI4IMZTDrLTpXMn+8C9d9t14yZY67ZtXXCRQabbOCIqHvZXDCk/U6yVAEZDbIYKLouIumAQ0f6SYIZB2FDOtFizLLhQFcbT+ASg4EmJ7J47tWEpOwKrPHygrrdGlD79+oUgbUpg5iB3r9/efftaJ3nhCG2kkfLZyYSW7Nm7j/Xt398/4EeeNq1borbtxPGTfuxnPMf3xPET0lDH/ZotfQg5m5WOHdO90kTc7LJjlxodg9GAdASgVo1a1qtXL5XT30/UjDR76FMc+nr9eqf30Nev/wBrqlHvtMr3E3Rci5/w++DwFgIksQEKmgPd1CfQlOXnhUDIlVjd2jWtY7t21rdvHz88hTpQJz6/UJXQAv6yf9WFE1/4DMZGbeFP+T1LyKUtCMVYuUdLpjfF4PJZ3LlSJFXlKQFVdc8LhWpVdvQAHJXpLz6qQtjWpEeLxOCetwLxYHJtppAlEIVBOp814De9juBmxnsEpgvZfQZQZKQrbx4UAtV1uqElE4grBZXbO4RSgHxgBjEnfiEgjRumKdzPOQ/wPba1AtHOeBomhuJ7BV+ByYY0DfsJssu4QHD6qiKksOLVqtVIP5B9vpIrvEWomf7hQOn9+8p943cIe/2DKPt5n81DPo49stlFkypBJPmStMydAiEt4o+/TUI6+MG9hv0ISqE01A8eFRLOvt+DFRV2oKI8pT3Qul/38TrSzak1aNSsORGEMJSdpSeGYqhC5qqEUNci3EVtnQOa5WzPq4Aa//AP//hl93h9yfdgWmhYAenTu5fdMO5632kVe1fZrl22bs1qO3T0mGzFBr5EyeefeFW8iX6bNWvq937tIdzH0FBDVOtWLeyKy8fYsOEjrJHsGOD48aO2asVymzvvHV/ypcHppVSqe5dOdulll/k5UhHWrFxu8+Rpb9663e1TaAbCT5754KCjdWjfzkYMH+Y44rezKsrLbd7s6TZr+lTflL588WJbsXSJrVy+zJcxly1eqLDIv+u2culS37zeUkNYg3O9QCnesVeCA6rpXP4avZypJqprM/3CE/jjfGrSxNq0bGGDBw+2y0aN8Q3X1IWPAa5etdLemT/f9u7dF3iRtgtfhWxQu4a/WbB8yRJbKjpXLFviR0wtl9fPPTSvWrbUdm7f6htw4pGlAAsVy5cstD179rhz1ow2FB0cc8rqJb5Llp/hOs/TCOFZegNIwKvVqOYzGa1at7IW4JU8sLONYR9Nj4aNaWnjli2b26UjRljfiy7yI2bPF2oWkgPSbAzXhSk4MXv8hJvcDsHGYUJZA4H3Sn7DhHsGEzXTw5Rc2W7Ba7zy6muteWveJo2gDlNUFpCPK37Gff4p5buC4jpEFQBkRNoisOn5uWefs5lz5qWeMSMPmrKWcLzrdp0Pc0oLk3v37GGde/Ry++tsgKa8ZMRILxSv27W0rpkDxiunDLYMAsTVk/AMGDjQP8ScG649HaOSKM4QzUkwfN/s6edflAAjiGEWA/pqyTHEufGlc8WStpM6/T13HbEmzZu7PQ7wcfDLL7/SOAv4oEYRtB0+ACuNb771ti1evkJ52YDkyc8bwFG9Rh33Ba65fJS1aNnS68pRBGvXrbdnX3zJTqo8Rpi4oMHzOCJdCFQr2707efLJx+ynfq5C8azCePvOd75t3Xv28mEPwCjnlRY2e/iUkdLCuNAO0XvOAM/1MMbiuTId1Kptu9xpikB52R57/unf2g9//GNbtmptblaBrW5xVmFCdlbhud/bI8wqzJ7nAhYrHn7Ob1Zh2pRJ9pUvfdGmzZrr038RQkN6rUJECt06d7Sf/fKXNnbsVWlM1cC+hYMH97vmpEEBUIbOgRAHntAtasjZYo8tbwbkRradO+z555+1x3g9ffXaMMNC2/jTsAsu1jEC50ckmZUvRisOvXvowQfsgQc+aN16halHeHLo4AF/F425Y/CCi7db/vM737XXXn/DFVIhTwP9WSA+G+ejgZzXK68aa5/79KesR8/eEuSw62/SlCn22c993vZoxMZMRPHSsXr37G5/9cmP22133W2t23ZIMZ0bqmMv8Vn7nAovADRpYbx/wEMap0v3nmJEH5+H7abQXUzpnt4XBGkonsd70rCpJCu0AOX4kmPR3gjuMAXyOhvQnZjk8UVkF98DjkPCA2NjAq6DvSqNoIZzjaXOUpug4Z35Vu4J3ojgSMs8H0C7tWnbPq1/Hw/UHV50yfCE+M7duhd8dhZAI9MhfTk+U3eviwI0RfoijRql8/fCFZZUmS4TX9POA1AOJ1VyDKrTo7aEzo5du/km/GIoxVOgID4SJhoaasjv0r2H149TH9t06GRt2ndwh86T6U/oC2E6Lbu56nxBvpN6sXpmKLUQ0DwwIWrb/0ngJT16ojtc54Rgh4faV6Y7CqV3BL8WU5TWHcJUOPhlHzJo2ErnDFR6vHUO04v3ITDwCpQ4LsT8T0Ot1AGmQ3sdCuipHEiTrbenR2ARfF0XK6BSgGDFvdvZ8hD688kfID/aFYCieK8QyOMWzSn+Uu14Nqjunm/x8msKTOmUy2vdW1ZmZWnYJ4eGwAHJ5XKiYnw2Tbjf62kq9u3zM2k9Xs4AE/4eIg6/DnFH5fDlXm5MAdkMsx4upTmgUznNis8+QaBpgNxGDtlXtRiaxJtDhw/7d2nZWVW+t9ztO0YanruWUogai7dwIw6e1xZOhj3sQBYb9u6hjnt88YGXK2mILAST6oDKCfXeWyY+qo77yvf5dsS9Hr87V3/4V06APp7vCQsjKPhIV46eDG35OF4IIGTi0l9MszjsAwgWNj22MnR42aKDN3Qj/6lzxONHVRXxvxLwWIERiTnhIBtqb9UH/jAjA9COBbzm5QHRDW8vBKpVVOxLnvrJ4/aEwrqCs8PO+JlQI0cOc9Ufe0SN6uGgCt8hJgZ459K9060/WZPDBS7VGq71BOQlHUMzMZRDXjrJ5i1bbemy5S7oCB95SHfV5Zf5EUw33nqH44AUDnZmyXfyjNnqtcHGpWy+Js4m79ZNG7vhT9n06OpyuDjrqnWbNn74Mrg5QRwHjdfssaXRNu5M4JwpT9g9FgrkPbvTwt+7T2/fQH7qxCmnu7E88UuGDbMxV1xp7eW4Agx7s6ZNsmlTp6ab1PEFUAzyAZiC0jUCQhlcU3TsfpgF4pp/wHmvBBphQmPGQdHnT4XD388LxDkQj+fOMrRvaiethK9z505262132JXXXu/vtwHMmb7+yks2Z+5sKaYKj4N/fOeYmZAjhw5aHQkVDhT8O3j4qO1SR9ov3yamDZASlQJpUYSdJTdDBw00Tlqn/WvWrC4hLreVK1dZ3dq15FTWEG9lD6sdevfuafd94EEbOWr0Bc0qSHDLU8H9ia3lI9Riims30ePvBNVmHZtbr4UzGoEMNonY7HVI2a580RGJ9YmCG6vnu4yUzr1nXTO8pahl14WzDqKzReVccEdfmp4dlu5VULpX/xBOJI+CCxI6AdMwV469wiZcf50zBrx7du+UEE2zKbNm55apERwOmxty8UC7fNQoa+c2WDADGKahmSVc8lN/po4mTZ5k8xcuVgMfdi1GTZnOmnDDdfbwRz5mQ0Zc6vkRnCd//AP72c9+Yes3b/Y6wh93Y11Qw7SW84EC+FXgVVc98LJ53kad7Ap55yNGjDBOLXfBSAX3hDqOJNrLE4ac4IZZBXU4jwvfOevbb6Cv7sVpQA7d+8ZX/9WeefY5K5Pg0t6kx2S68orL7fprr7GWLVqpvHcl5Mds/oL59tbbU2wNm8BFoo90DtSKnAGcV2IWX8pHOElLCtqxqRTJsKFDhftaXTd1RcXo0Kp1axsw6BJfSs/jPQ/g6+mlXk+PryPzEWgR469vC7G/fh1COHOL5/FZeB7iSj8LecKzYhwhjjJjII/sUn89/dWis8P++Nzvk+uuHJPUyZxILiYlnTq0S/7PP30hoV58H+2oAt/4+uuPPZQ0qF8PLque4XTw5k0a+/e0prz156Rib5l/Y42PYR8+dCA5dHC/X/PNMb4Bt3TBO8knPny/fxvNcYhefhs0apS87/ZbkhmT3k4pS5KTp08lX/vKvyRdO7YXTaqj+Jqvt/ig8uN1rL+cqXDyuK7lczjuHl06JV/70v9JNq5flxw9fMjpgMZIZ0HQM84646yvwwdUBwWujx49HM5ny4BMhOSvPvaw6t8orUv43hq/Dz34QLJEdeWVc2neZOe2rcmjP/hOyRPJi08ej4H2iG1KfSijTcuWyd984uFk44Z1yfGjRxM+4QB9x47xLT25ohcI1enZbnxnek4AtCs9SN6qgoh27SdC1JODCRDi88/C8xAXn/kKUu5ZyOOhEg4C/bMIvNrhJwLX0I2RHyaVAsQ0aB4OBuH7XPUU+I4Z2gatRoAmgNEDW6t+g0a+EMJQ1UgatEHDxsrTxK/ZveTfCBMORqCYN9At+mGSl5ylUHfprRovV8+YB42Zy++/CoqrKXo8nX5DXtnWdWo7DfWkcaEDGiOdBQEa2c5ImsaqgwLXnBoE/iyo3V0VOi3wAzqksakJdWS7JK8N8U03eFendp0wChdBrGMxwOPYptTB41QlP29Z9aBt2EAD7rp1+ZbeBWjaFKR8GOY1VGiYwGZyQS4K2FgFvxL07H28Lr73XzoFoSg+9yxzXxycwRIIfot5FIUw0kIAPG0RRx2Lx/uFl+nxubTF2EsDNnScDsvRqfKrBMef1iUNMV+8zv0qbcAfroG4W0uRfv+XAviGneNlerkpDXpGHP8iSAT9L2QAVclIVYH6RHAcedSCyp3hfMFFnSkJjHq/FvYwXYFzErRanB7K/Z4uvI/Xxff+q7Tgyd2nvxF/Nk9xgImk4Q1QmJAHnL0z7r1GJ4X0wHE5WtixCEwEmEd6AnyjTMDrnEtXwNFK4HPGCuzUAmJ57C+OjmcBCB1OWTgYRPVQ+mxd43XuV3hOv4sDGO4Bdoaxq+x0uiHmLwUusOIF9jBAedAYr2U0+DWADcFICO9cEFNen2+gPgDHZNEuZ+3oFwDVjh0/lsyeNcOmTZ5iu3fupjt68GPZRSQraNl+EYZ8OU44LrrnWbbJs/ekYzhyRtHw+o29meVKHDwqF4HhKJgt9KiwusRc60X9e9vYK6+23v3yexVWrVhmUyZPthWrVtuZdNWLOUten75i7FgbPWaM5wXYcDJ75gybLAft8KEjrnFYemZ9fuTIETbq8sutdZvMcmsJwLufM3O6TZ063U9Mx8QAGJ4vHjTAxlwx1jp17eZxNPBUOXIzpk2z3bvDieQA9Wco9vIlNJFPxFN3yncepYG3knmjeNiIkTIP3tsB06WAPQNv/vk1mztnrk/vOR0qjyX866+/3q4bN05DeRNPSxx7N6ZMmmQrVq4WnWpjZABTT0M8nTm2YWz7KC+xfgh9y5Yt7HLxeczYKystPr0XkFObJFSE5T8ZzWm0BFQMhnnu4RMhxlK58OKheqAEl/sYH4n0YSiCroPgMmSEFOCkSjQgwuz7PzN5XLPqFqaAFzqwhbC7snN94GHZmblSVv7AQTnYf3ybNgoWQNqTJ47boQOqI9vnRAKHvSHYbCDyjeFZuqsAGqB8T5lwcO4AXUt2W22+k9HQbULsxAhMOR05fNCOHQ1vsQL8Qhd5495aRfq+AnBRP08Lr0SPf19BdYFXf2mQwgpLvqKTIimXVdQW8vLjd9wiMGLB5wP794usYKK5iYngKl/WHACIC+wMPOV5HdUlvLFctXK4EHDBTa+diRGYmqFYJyJE5cCfZdIC8a44rdegOG2Kuzge8CkhRYcJmhSIqwJIFWmB0rMkLUwLDVyfLUMJCLnzeEJFzlZozJGWHy4LwDnM/0xahwuk7T1B5IeCl3aevHYgbTHNghyuLPyF6yI6SpT8v/C/8P84/GX09v/C/8L/VTD7/wFAp1O2AqRNDAAAAABJRU5ErkJggg==;fillColor=#B2C9AB;strokeColor=#788AA3;fontColor=#46495D;" vertex="1" parent="1">
          <mxGeometry x="803.9999999999999" y="293.19" width="93.34" height="92.81" as="geometry" />
        </mxCell>
        <mxCell id="10i8PntJXFFodvHVopwG-12" value="" style="html=1;shadow=0;dashed=0;align=center;verticalAlign=middle;shape=mxgraph.arrows2.jumpInArrow;dy=4.02;dx=46.95;arrowHead=55;fontColor=#46495D;labelBackgroundColor=none;labelBorderColor=default;fillColor=#B2C9AB;strokeColor=#788AA3;" vertex="1" parent="1">
          <mxGeometry x="663" y="335" width="138" height="155" as="geometry" />
        </mxCell>
        <mxCell id="10i8PntJXFFodvHVopwG-13" value="&lt;span style=&quot;font-size:10.5pt;mso-bidi-font-size:12.0pt;&#xa;line-height:150%;font-family:&amp;quot;Times New Roman&amp;quot;,serif;mso-fareast-font-family:&#xa;宋体;mso-fareast-theme-font:minor-fareast;mso-bidi-theme-font:minor-bidi;&#xa;mso-font-kerning:1.0pt;mso-ansi-language:EN-US;mso-fareast-language:ZH-CN;&#xa;mso-bidi-language:AR-SA&quot;&gt;the QR code &lt;/span&gt;" style="text;whiteSpace=wrap;html=1;labelBackgroundColor=none;fontColor=#46495D;" vertex="1" parent="1">
          <mxGeometry x="803.9981243024556" y="262.00379499162955" width="98" height="39" as="geometry" />
        </mxCell>
      </root>
    </mxGraphModel>
  </diagram>
</mxfile>
